G04 #@! TF.GenerationSoftware,KiCad,Pcbnew,(5.1.4)-1*
G04 #@! TF.CreationDate,2020-03-01T13:43:41+08:00*
G04 #@! TF.ProjectId,Core-Charger,436f7265-2d43-4686-9172-6765722e6b69,rev?*
G04 #@! TF.SameCoordinates,Original*
G04 #@! TF.FileFunction,Legend,Top*
G04 #@! TF.FilePolarity,Positive*
%FSLAX46Y46*%
G04 Gerber Fmt 4.6, Leading zero omitted, Abs format (unit mm)*
G04 Created by KiCad (PCBNEW (5.1.4)-1) date 2020-03-01 13:43:41*
%MOMM*%
%LPD*%
G04 APERTURE LIST*
%ADD10C,0.100000*%
%ADD11C,0.120000*%
G04 APERTURE END LIST*
D10*
X128180000Y-96700000D02*
G75*
G03X128180000Y-96700000I-900000J0D01*
G01*
X149380000Y-84500000D02*
G75*
G03X149380000Y-84500000I-900000J0D01*
G01*
X128180000Y-84500000D02*
G75*
G03X128180000Y-84500000I-900000J0D01*
G01*
X149380000Y-96700000D02*
G75*
G03X149380000Y-96700000I-900000J0D01*
G01*
D11*
X139138922Y-91400000D02*
X139656078Y-91400000D01*
X139138922Y-92820000D02*
X139656078Y-92820000D01*
X147680000Y-87141422D02*
X147680000Y-87658578D01*
X149100000Y-87141422D02*
X149100000Y-87658578D01*
X135781422Y-91400000D02*
X136298578Y-91400000D01*
X135781422Y-92820000D02*
X136298578Y-92820000D01*
X135941422Y-94720000D02*
X136458578Y-94720000D01*
X135941422Y-93300000D02*
X136458578Y-93300000D01*
X135788922Y-89490000D02*
X136306078Y-89490000D01*
X135788922Y-90910000D02*
X136306078Y-90910000D01*
X130860000Y-83945000D02*
X128575000Y-83945000D01*
X128575000Y-83945000D02*
X128575000Y-85415000D01*
X128575000Y-85415000D02*
X130860000Y-85415000D01*
X134060000Y-83935000D02*
X131775000Y-83935000D01*
X131775000Y-83935000D02*
X131775000Y-85405000D01*
X131775000Y-85405000D02*
X134060000Y-85405000D01*
X132690000Y-86740000D02*
X132690000Y-86460000D01*
X132690000Y-86460000D02*
X134290000Y-86460000D01*
X134290000Y-86460000D02*
X134290000Y-85540000D01*
X134290000Y-85540000D02*
X126470000Y-85540000D01*
X126470000Y-85540000D02*
X126470000Y-95660000D01*
X126470000Y-95660000D02*
X134290000Y-95660000D01*
X134290000Y-95660000D02*
X134290000Y-94740000D01*
X134290000Y-94740000D02*
X132690000Y-94740000D01*
X132690000Y-94740000D02*
X132690000Y-94460000D01*
X126470000Y-88100000D02*
X130830000Y-88100000D01*
X130830000Y-88100000D02*
X130830000Y-93100000D01*
X130830000Y-93100000D02*
X126470000Y-93100000D01*
X132690000Y-85540000D02*
X132690000Y-86460000D01*
X132690000Y-95660000D02*
X132690000Y-94740000D01*
X130330000Y-86300000D02*
X128730000Y-86300000D01*
X128730000Y-86300000D02*
X128730000Y-87300000D01*
X128730000Y-87300000D02*
X130330000Y-87300000D01*
X130330000Y-87300000D02*
X130330000Y-86300000D01*
X130330000Y-94900000D02*
X128730000Y-94900000D01*
X128730000Y-94900000D02*
X128730000Y-93900000D01*
X128730000Y-93900000D02*
X130330000Y-93900000D01*
X130330000Y-93900000D02*
X130330000Y-94900000D01*
X128730000Y-87300000D02*
X126470000Y-87300000D01*
X128730000Y-86800000D02*
X126470000Y-86800000D01*
X132690000Y-86740000D02*
X133905000Y-86740000D01*
X143090000Y-94370000D02*
X143090000Y-94650000D01*
X143090000Y-94650000D02*
X141490000Y-94650000D01*
X141490000Y-94650000D02*
X141490000Y-95570000D01*
X141490000Y-95570000D02*
X149310000Y-95570000D01*
X149310000Y-95570000D02*
X149310000Y-89450000D01*
X149310000Y-89450000D02*
X141490000Y-89450000D01*
X141490000Y-89450000D02*
X141490000Y-90370000D01*
X141490000Y-90370000D02*
X143090000Y-90370000D01*
X143090000Y-90370000D02*
X143090000Y-90650000D01*
X149310000Y-93010000D02*
X144950000Y-93010000D01*
X144950000Y-93010000D02*
X144950000Y-92010000D01*
X144950000Y-92010000D02*
X149310000Y-92010000D01*
X143090000Y-95570000D02*
X143090000Y-94650000D01*
X143090000Y-89450000D02*
X143090000Y-90370000D01*
X145450000Y-94810000D02*
X147050000Y-94810000D01*
X147050000Y-94810000D02*
X147050000Y-93810000D01*
X147050000Y-93810000D02*
X145450000Y-93810000D01*
X145450000Y-93810000D02*
X145450000Y-94810000D01*
X145450000Y-90210000D02*
X147050000Y-90210000D01*
X147050000Y-90210000D02*
X147050000Y-91210000D01*
X147050000Y-91210000D02*
X145450000Y-91210000D01*
X145450000Y-91210000D02*
X145450000Y-90210000D01*
X147050000Y-93810000D02*
X149310000Y-93810000D01*
X147050000Y-94310000D02*
X149310000Y-94310000D01*
X143090000Y-94370000D02*
X141875000Y-94370000D01*
X142575000Y-83790000D02*
X142575000Y-84815000D01*
X142575000Y-83790000D02*
X143600000Y-83790000D01*
X147345000Y-83790000D02*
X146320000Y-83790000D01*
X147345000Y-83790000D02*
X147345000Y-84815000D01*
X147345000Y-88010000D02*
X147345000Y-86985000D01*
X142575000Y-88010000D02*
X142575000Y-86985000D01*
X147345000Y-88010000D02*
X146320000Y-88010000D01*
X142575000Y-88010000D02*
X143600000Y-88010000D01*
X139310000Y-96800000D02*
X139310000Y-97460000D01*
X139310000Y-95140000D02*
X139310000Y-95800000D01*
X139310000Y-95140000D02*
X137280000Y-95140000D01*
X137900000Y-97460000D02*
X139310000Y-97460000D01*
X139668578Y-89510000D02*
X139151422Y-89510000D01*
X139668578Y-90930000D02*
X139151422Y-90930000D01*
X138470000Y-89110000D02*
X140420000Y-89110000D01*
X138470000Y-89110000D02*
X136520000Y-89110000D01*
X138470000Y-83990000D02*
X140420000Y-83990000D01*
X138470000Y-83990000D02*
X135020000Y-83990000D01*
X140330000Y-95570000D02*
X140330000Y-97690000D01*
X142390000Y-95570000D02*
X140330000Y-95570000D01*
X142390000Y-97690000D02*
X140330000Y-97690000D01*
X142390000Y-95570000D02*
X142390000Y-97690000D01*
X143390000Y-95570000D02*
X144450000Y-95570000D01*
X144450000Y-95570000D02*
X144450000Y-96630000D01*
M02*
