G04 #@! TF.GenerationSoftware,KiCad,Pcbnew,(5.1.4)-1*
G04 #@! TF.CreationDate,2020-03-01T13:43:41+08:00*
G04 #@! TF.ProjectId,Core-Charger,436f7265-2d43-4686-9172-6765722e6b69,rev?*
G04 #@! TF.SameCoordinates,Original*
G04 #@! TF.FileFunction,Legend,Bot*
G04 #@! TF.FilePolarity,Positive*
%FSLAX46Y46*%
G04 Gerber Fmt 4.6, Leading zero omitted, Abs format (unit mm)*
G04 Created by KiCad (PCBNEW (5.1.4)-1) date 2020-03-01 13:43:41*
%MOMM*%
%LPD*%
G04 APERTURE LIST*
%ADD10C,0.150000*%
G04 APERTURE END LIST*
D10*
X145340476Y-96990000D02*
X145264285Y-97028095D01*
X145150000Y-97028095D01*
X145035714Y-96990000D01*
X144959523Y-96913809D01*
X144921428Y-96837619D01*
X144883333Y-96685238D01*
X144883333Y-96570952D01*
X144921428Y-96418571D01*
X144959523Y-96342380D01*
X145035714Y-96266190D01*
X145150000Y-96228095D01*
X145226190Y-96228095D01*
X145340476Y-96266190D01*
X145378571Y-96304285D01*
X145378571Y-96570952D01*
X145226190Y-96570952D01*
X145721428Y-96228095D02*
X145721428Y-97028095D01*
X146178571Y-96228095D01*
X146178571Y-97028095D01*
X146559523Y-96228095D02*
X146559523Y-97028095D01*
X146750000Y-97028095D01*
X146864285Y-96990000D01*
X146940476Y-96913809D01*
X146978571Y-96837619D01*
X147016666Y-96685238D01*
X147016666Y-96570952D01*
X146978571Y-96418571D01*
X146940476Y-96342380D01*
X146864285Y-96266190D01*
X146750000Y-96228095D01*
X146559523Y-96228095D01*
X138789523Y-96647142D02*
X139056190Y-96647142D01*
X139170476Y-96228095D02*
X138789523Y-96228095D01*
X138789523Y-97028095D01*
X139170476Y-97028095D01*
X139513333Y-96228095D02*
X139513333Y-97028095D01*
X139970476Y-96228095D01*
X139970476Y-97028095D01*
X146685714Y-93312857D02*
X146571428Y-93350952D01*
X146533333Y-93389047D01*
X146495238Y-93465238D01*
X146495238Y-93579523D01*
X146533333Y-93655714D01*
X146571428Y-93693809D01*
X146647619Y-93731904D01*
X146952380Y-93731904D01*
X146952380Y-92931904D01*
X146685714Y-92931904D01*
X146609523Y-92970000D01*
X146571428Y-93008095D01*
X146533333Y-93084285D01*
X146533333Y-93160476D01*
X146571428Y-93236666D01*
X146609523Y-93274761D01*
X146685714Y-93312857D01*
X146952380Y-93312857D01*
X146190476Y-93503333D02*
X145809523Y-93503333D01*
X146266666Y-93731904D02*
X146000000Y-92931904D01*
X145733333Y-93731904D01*
X145580952Y-92931904D02*
X145123809Y-92931904D01*
X145352380Y-93731904D02*
X145352380Y-92931904D01*
X144857142Y-93427142D02*
X144247619Y-93427142D01*
X146635714Y-91552857D02*
X146521428Y-91590952D01*
X146483333Y-91629047D01*
X146445238Y-91705238D01*
X146445238Y-91819523D01*
X146483333Y-91895714D01*
X146521428Y-91933809D01*
X146597619Y-91971904D01*
X146902380Y-91971904D01*
X146902380Y-91171904D01*
X146635714Y-91171904D01*
X146559523Y-91210000D01*
X146521428Y-91248095D01*
X146483333Y-91324285D01*
X146483333Y-91400476D01*
X146521428Y-91476666D01*
X146559523Y-91514761D01*
X146635714Y-91552857D01*
X146902380Y-91552857D01*
X146140476Y-91743333D02*
X145759523Y-91743333D01*
X146216666Y-91971904D02*
X145950000Y-91171904D01*
X145683333Y-91971904D01*
X145530952Y-91171904D02*
X145073809Y-91171904D01*
X145302380Y-91971904D02*
X145302380Y-91171904D01*
X144807142Y-91667142D02*
X144197619Y-91667142D01*
X144502380Y-91971904D02*
X144502380Y-91362380D01*
X130470952Y-93995714D02*
X130509047Y-94033809D01*
X130623333Y-94071904D01*
X130699523Y-94071904D01*
X130813809Y-94033809D01*
X130890000Y-93957619D01*
X130928095Y-93881428D01*
X130966190Y-93729047D01*
X130966190Y-93614761D01*
X130928095Y-93462380D01*
X130890000Y-93386190D01*
X130813809Y-93310000D01*
X130699523Y-93271904D01*
X130623333Y-93271904D01*
X130509047Y-93310000D01*
X130470952Y-93348095D01*
X130242380Y-93271904D02*
X129785238Y-93271904D01*
X130013809Y-94071904D02*
X130013809Y-93271904D01*
X129061428Y-94071904D02*
X129328095Y-93690952D01*
X129518571Y-94071904D02*
X129518571Y-93271904D01*
X129213809Y-93271904D01*
X129137619Y-93310000D01*
X129099523Y-93348095D01*
X129061428Y-93424285D01*
X129061428Y-93538571D01*
X129099523Y-93614761D01*
X129137619Y-93652857D01*
X129213809Y-93690952D01*
X129518571Y-93690952D01*
X128337619Y-94071904D02*
X128718571Y-94071904D01*
X128718571Y-93271904D01*
X130959523Y-91191904D02*
X130692857Y-91991904D01*
X130426190Y-91191904D01*
X130007142Y-91191904D02*
X129854761Y-91191904D01*
X129778571Y-91230000D01*
X129702380Y-91306190D01*
X129664285Y-91458571D01*
X129664285Y-91725238D01*
X129702380Y-91877619D01*
X129778571Y-91953809D01*
X129854761Y-91991904D01*
X130007142Y-91991904D01*
X130083333Y-91953809D01*
X130159523Y-91877619D01*
X130197619Y-91725238D01*
X130197619Y-91458571D01*
X130159523Y-91306190D01*
X130083333Y-91230000D01*
X130007142Y-91191904D01*
X129321428Y-91191904D02*
X129321428Y-91839523D01*
X129283333Y-91915714D01*
X129245238Y-91953809D01*
X129169047Y-91991904D01*
X129016666Y-91991904D01*
X128940476Y-91953809D01*
X128902380Y-91915714D01*
X128864285Y-91839523D01*
X128864285Y-91191904D01*
X128597619Y-91191904D02*
X128140476Y-91191904D01*
X128369047Y-91991904D02*
X128369047Y-91191904D01*
X130936666Y-89221904D02*
X130670000Y-90021904D01*
X130403333Y-89221904D01*
X129679523Y-89945714D02*
X129717619Y-89983809D01*
X129831904Y-90021904D01*
X129908095Y-90021904D01*
X130022380Y-89983809D01*
X130098571Y-89907619D01*
X130136666Y-89831428D01*
X130174761Y-89679047D01*
X130174761Y-89564761D01*
X130136666Y-89412380D01*
X130098571Y-89336190D01*
X130022380Y-89260000D01*
X129908095Y-89221904D01*
X129831904Y-89221904D01*
X129717619Y-89260000D01*
X129679523Y-89298095D01*
X128879523Y-89945714D02*
X128917619Y-89983809D01*
X129031904Y-90021904D01*
X129108095Y-90021904D01*
X129222380Y-89983809D01*
X129298571Y-89907619D01*
X129336666Y-89831428D01*
X129374761Y-89679047D01*
X129374761Y-89564761D01*
X129336666Y-89412380D01*
X129298571Y-89336190D01*
X129222380Y-89260000D01*
X129108095Y-89221904D01*
X129031904Y-89221904D01*
X128917619Y-89260000D01*
X128879523Y-89298095D01*
X130479523Y-87260000D02*
X130555714Y-87221904D01*
X130670000Y-87221904D01*
X130784285Y-87260000D01*
X130860476Y-87336190D01*
X130898571Y-87412380D01*
X130936666Y-87564761D01*
X130936666Y-87679047D01*
X130898571Y-87831428D01*
X130860476Y-87907619D01*
X130784285Y-87983809D01*
X130670000Y-88021904D01*
X130593809Y-88021904D01*
X130479523Y-87983809D01*
X130441428Y-87945714D01*
X130441428Y-87679047D01*
X130593809Y-87679047D01*
X130098571Y-88021904D02*
X130098571Y-87221904D01*
X129641428Y-88021904D01*
X129641428Y-87221904D01*
X129260476Y-88021904D02*
X129260476Y-87221904D01*
X129070000Y-87221904D01*
X128955714Y-87260000D01*
X128879523Y-87336190D01*
X128841428Y-87412380D01*
X128803333Y-87564761D01*
X128803333Y-87679047D01*
X128841428Y-87831428D01*
X128879523Y-87907619D01*
X128955714Y-87983809D01*
X129070000Y-88021904D01*
X129260476Y-88021904D01*
X134670714Y-87086190D02*
X134708809Y-87048095D01*
X134746904Y-86933809D01*
X134746904Y-86857619D01*
X134708809Y-86743333D01*
X134632619Y-86667142D01*
X134556428Y-86629047D01*
X134404047Y-86590952D01*
X134289761Y-86590952D01*
X134137380Y-86629047D01*
X134061190Y-86667142D01*
X133985000Y-86743333D01*
X133946904Y-86857619D01*
X133946904Y-86933809D01*
X133985000Y-87048095D01*
X134023095Y-87086190D01*
X134746904Y-87543333D02*
X134708809Y-87467142D01*
X134670714Y-87429047D01*
X134594523Y-87390952D01*
X134365952Y-87390952D01*
X134289761Y-87429047D01*
X134251666Y-87467142D01*
X134213571Y-87543333D01*
X134213571Y-87657619D01*
X134251666Y-87733809D01*
X134289761Y-87771904D01*
X134365952Y-87810000D01*
X134594523Y-87810000D01*
X134670714Y-87771904D01*
X134708809Y-87733809D01*
X134746904Y-87657619D01*
X134746904Y-87543333D01*
X134746904Y-88152857D02*
X134213571Y-88152857D01*
X134365952Y-88152857D02*
X134289761Y-88190952D01*
X134251666Y-88229047D01*
X134213571Y-88305238D01*
X134213571Y-88381428D01*
X134708809Y-88952857D02*
X134746904Y-88876666D01*
X134746904Y-88724285D01*
X134708809Y-88648095D01*
X134632619Y-88610000D01*
X134327857Y-88610000D01*
X134251666Y-88648095D01*
X134213571Y-88724285D01*
X134213571Y-88876666D01*
X134251666Y-88952857D01*
X134327857Y-88990952D01*
X134404047Y-88990952D01*
X134480238Y-88610000D01*
X134442142Y-89333809D02*
X134442142Y-89943333D01*
X134670714Y-90781428D02*
X134708809Y-90743333D01*
X134746904Y-90629047D01*
X134746904Y-90552857D01*
X134708809Y-90438571D01*
X134632619Y-90362380D01*
X134556428Y-90324285D01*
X134404047Y-90286190D01*
X134289761Y-90286190D01*
X134137380Y-90324285D01*
X134061190Y-90362380D01*
X133985000Y-90438571D01*
X133946904Y-90552857D01*
X133946904Y-90629047D01*
X133985000Y-90743333D01*
X134023095Y-90781428D01*
X134746904Y-91124285D02*
X133946904Y-91124285D01*
X134746904Y-91467142D02*
X134327857Y-91467142D01*
X134251666Y-91429047D01*
X134213571Y-91352857D01*
X134213571Y-91238571D01*
X134251666Y-91162380D01*
X134289761Y-91124285D01*
X134746904Y-92190952D02*
X134327857Y-92190952D01*
X134251666Y-92152857D01*
X134213571Y-92076666D01*
X134213571Y-91924285D01*
X134251666Y-91848095D01*
X134708809Y-92190952D02*
X134746904Y-92114761D01*
X134746904Y-91924285D01*
X134708809Y-91848095D01*
X134632619Y-91810000D01*
X134556428Y-91810000D01*
X134480238Y-91848095D01*
X134442142Y-91924285D01*
X134442142Y-92114761D01*
X134404047Y-92190952D01*
X134746904Y-92571904D02*
X134213571Y-92571904D01*
X134365952Y-92571904D02*
X134289761Y-92610000D01*
X134251666Y-92648095D01*
X134213571Y-92724285D01*
X134213571Y-92800476D01*
X134213571Y-93410000D02*
X134861190Y-93410000D01*
X134937380Y-93371904D01*
X134975476Y-93333809D01*
X135013571Y-93257619D01*
X135013571Y-93143333D01*
X134975476Y-93067142D01*
X134708809Y-93410000D02*
X134746904Y-93333809D01*
X134746904Y-93181428D01*
X134708809Y-93105238D01*
X134670714Y-93067142D01*
X134594523Y-93029047D01*
X134365952Y-93029047D01*
X134289761Y-93067142D01*
X134251666Y-93105238D01*
X134213571Y-93181428D01*
X134213571Y-93333809D01*
X134251666Y-93410000D01*
X134708809Y-94095714D02*
X134746904Y-94019523D01*
X134746904Y-93867142D01*
X134708809Y-93790952D01*
X134632619Y-93752857D01*
X134327857Y-93752857D01*
X134251666Y-93790952D01*
X134213571Y-93867142D01*
X134213571Y-94019523D01*
X134251666Y-94095714D01*
X134327857Y-94133809D01*
X134404047Y-94133809D01*
X134480238Y-93752857D01*
X134746904Y-94476666D02*
X134213571Y-94476666D01*
X134365952Y-94476666D02*
X134289761Y-94514761D01*
X134251666Y-94552857D01*
X134213571Y-94629047D01*
X134213571Y-94705238D01*
X135563571Y-86114761D02*
X136096904Y-86305238D01*
X135563571Y-86495714D01*
X135296904Y-86952857D02*
X135296904Y-87029047D01*
X135335000Y-87105238D01*
X135373095Y-87143333D01*
X135449285Y-87181428D01*
X135601666Y-87219523D01*
X135792142Y-87219523D01*
X135944523Y-87181428D01*
X136020714Y-87143333D01*
X136058809Y-87105238D01*
X136096904Y-87029047D01*
X136096904Y-86952857D01*
X136058809Y-86876666D01*
X136020714Y-86838571D01*
X135944523Y-86800476D01*
X135792142Y-86762380D01*
X135601666Y-86762380D01*
X135449285Y-86800476D01*
X135373095Y-86838571D01*
X135335000Y-86876666D01*
X135296904Y-86952857D01*
X136020714Y-87562380D02*
X136058809Y-87600476D01*
X136096904Y-87562380D01*
X136058809Y-87524285D01*
X136020714Y-87562380D01*
X136096904Y-87562380D01*
X136096904Y-88362380D02*
X136096904Y-87905238D01*
X136096904Y-88133809D02*
X135296904Y-88133809D01*
X135411190Y-88057619D01*
X135487380Y-87981428D01*
X135525476Y-87905238D01*
X135373095Y-89276666D02*
X135335000Y-89314761D01*
X135296904Y-89390952D01*
X135296904Y-89581428D01*
X135335000Y-89657619D01*
X135373095Y-89695714D01*
X135449285Y-89733809D01*
X135525476Y-89733809D01*
X135639761Y-89695714D01*
X136096904Y-89238571D01*
X136096904Y-89733809D01*
X135296904Y-90229047D02*
X135296904Y-90305238D01*
X135335000Y-90381428D01*
X135373095Y-90419523D01*
X135449285Y-90457619D01*
X135601666Y-90495714D01*
X135792142Y-90495714D01*
X135944523Y-90457619D01*
X136020714Y-90419523D01*
X136058809Y-90381428D01*
X136096904Y-90305238D01*
X136096904Y-90229047D01*
X136058809Y-90152857D01*
X136020714Y-90114761D01*
X135944523Y-90076666D01*
X135792142Y-90038571D01*
X135601666Y-90038571D01*
X135449285Y-90076666D01*
X135373095Y-90114761D01*
X135335000Y-90152857D01*
X135296904Y-90229047D01*
X135373095Y-90800476D02*
X135335000Y-90838571D01*
X135296904Y-90914761D01*
X135296904Y-91105238D01*
X135335000Y-91181428D01*
X135373095Y-91219523D01*
X135449285Y-91257619D01*
X135525476Y-91257619D01*
X135639761Y-91219523D01*
X136096904Y-90762380D01*
X136096904Y-91257619D01*
X135296904Y-91752857D02*
X135296904Y-91829047D01*
X135335000Y-91905238D01*
X135373095Y-91943333D01*
X135449285Y-91981428D01*
X135601666Y-92019523D01*
X135792142Y-92019523D01*
X135944523Y-91981428D01*
X136020714Y-91943333D01*
X136058809Y-91905238D01*
X136096904Y-91829047D01*
X136096904Y-91752857D01*
X136058809Y-91676666D01*
X136020714Y-91638571D01*
X135944523Y-91600476D01*
X135792142Y-91562380D01*
X135601666Y-91562380D01*
X135449285Y-91600476D01*
X135373095Y-91638571D01*
X135335000Y-91676666D01*
X135296904Y-91752857D01*
X135296904Y-92514761D02*
X135296904Y-92590952D01*
X135335000Y-92667142D01*
X135373095Y-92705238D01*
X135449285Y-92743333D01*
X135601666Y-92781428D01*
X135792142Y-92781428D01*
X135944523Y-92743333D01*
X136020714Y-92705238D01*
X136058809Y-92667142D01*
X136096904Y-92590952D01*
X136096904Y-92514761D01*
X136058809Y-92438571D01*
X136020714Y-92400476D01*
X135944523Y-92362380D01*
X135792142Y-92324285D01*
X135601666Y-92324285D01*
X135449285Y-92362380D01*
X135373095Y-92400476D01*
X135335000Y-92438571D01*
X135296904Y-92514761D01*
X135296904Y-93048095D02*
X135296904Y-93543333D01*
X135601666Y-93276666D01*
X135601666Y-93390952D01*
X135639761Y-93467142D01*
X135677857Y-93505238D01*
X135754047Y-93543333D01*
X135944523Y-93543333D01*
X136020714Y-93505238D01*
X136058809Y-93467142D01*
X136096904Y-93390952D01*
X136096904Y-93162380D01*
X136058809Y-93086190D01*
X136020714Y-93048095D01*
X135296904Y-94038571D02*
X135296904Y-94114761D01*
X135335000Y-94190952D01*
X135373095Y-94229047D01*
X135449285Y-94267142D01*
X135601666Y-94305238D01*
X135792142Y-94305238D01*
X135944523Y-94267142D01*
X136020714Y-94229047D01*
X136058809Y-94190952D01*
X136096904Y-94114761D01*
X136096904Y-94038571D01*
X136058809Y-93962380D01*
X136020714Y-93924285D01*
X135944523Y-93886190D01*
X135792142Y-93848095D01*
X135601666Y-93848095D01*
X135449285Y-93886190D01*
X135373095Y-93924285D01*
X135335000Y-93962380D01*
X135296904Y-94038571D01*
X136096904Y-95067142D02*
X136096904Y-94610000D01*
X136096904Y-94838571D02*
X135296904Y-94838571D01*
X135411190Y-94762380D01*
X135487380Y-94686190D01*
X135525476Y-94610000D01*
M02*
