G04 #@! TF.GenerationSoftware,KiCad,Pcbnew,(5.1.4)-1*
G04 #@! TF.CreationDate,2020-03-01T13:43:41+08:00*
G04 #@! TF.ProjectId,Core-Charger,436f7265-2d43-4686-9172-6765722e6b69,rev?*
G04 #@! TF.SameCoordinates,Original*
G04 #@! TF.FileFunction,Soldermask,Top*
G04 #@! TF.FilePolarity,Negative*
%FSLAX46Y46*%
G04 Gerber Fmt 4.6, Leading zero omitted, Abs format (unit mm)*
G04 Created by KiCad (PCBNEW (5.1.4)-1) date 2020-03-01 13:43:41*
%MOMM*%
%LPD*%
G04 APERTURE LIST*
%ADD10C,0.020000*%
G04 APERTURE END LIST*
D10*
G36*
X144116000Y-97356000D02*
G01*
X142664000Y-97356000D01*
X142664000Y-95904000D01*
X144116000Y-95904000D01*
X144116000Y-97356000D01*
X144116000Y-97356000D01*
G37*
G36*
X141461213Y-95907502D02*
G01*
X141532321Y-95914505D01*
X141627484Y-95943373D01*
X141669175Y-95956020D01*
X141795294Y-96023432D01*
X141905843Y-96114157D01*
X141996568Y-96224706D01*
X142063980Y-96350825D01*
X142063981Y-96350828D01*
X142105495Y-96487679D01*
X142119512Y-96630000D01*
X142105495Y-96772321D01*
X142078328Y-96861876D01*
X142063980Y-96909175D01*
X141996568Y-97035294D01*
X141905843Y-97145843D01*
X141795294Y-97236568D01*
X141669175Y-97303980D01*
X141669172Y-97303981D01*
X141532321Y-97345495D01*
X141461213Y-97352498D01*
X141425660Y-97356000D01*
X141354340Y-97356000D01*
X141318787Y-97352498D01*
X141247679Y-97345495D01*
X141110828Y-97303981D01*
X141110825Y-97303980D01*
X140984706Y-97236568D01*
X140874157Y-97145843D01*
X140783432Y-97035294D01*
X140716020Y-96909175D01*
X140701672Y-96861876D01*
X140674505Y-96772321D01*
X140660488Y-96630000D01*
X140674505Y-96487679D01*
X140716019Y-96350828D01*
X140716020Y-96350825D01*
X140783432Y-96224706D01*
X140874157Y-96114157D01*
X140984706Y-96023432D01*
X141110825Y-95956020D01*
X141152516Y-95943373D01*
X141247679Y-95914505D01*
X141318787Y-95907502D01*
X141354340Y-95904000D01*
X141425660Y-95904000D01*
X141461213Y-95907502D01*
X141461213Y-95907502D01*
G37*
G36*
X137981000Y-97226000D02*
G01*
X137179000Y-97226000D01*
X137179000Y-96674000D01*
X137981000Y-96674000D01*
X137981000Y-97226000D01*
X137981000Y-97226000D01*
G37*
G36*
X135581938Y-95201716D02*
G01*
X135602557Y-95207971D01*
X135621553Y-95218124D01*
X135638208Y-95231792D01*
X135651876Y-95248447D01*
X135662029Y-95267443D01*
X135668284Y-95288062D01*
X135671000Y-95315640D01*
X135671000Y-95824360D01*
X135668284Y-95851938D01*
X135662029Y-95872557D01*
X135651876Y-95891553D01*
X135638208Y-95908208D01*
X135621553Y-95921876D01*
X135606799Y-95929762D01*
X135586425Y-95943376D01*
X135569098Y-95960703D01*
X135555485Y-95981078D01*
X135546108Y-96003717D01*
X135541328Y-96027750D01*
X135541328Y-96052254D01*
X135546109Y-96076288D01*
X135555487Y-96098926D01*
X135569101Y-96119300D01*
X135586428Y-96136627D01*
X135606799Y-96150238D01*
X135621553Y-96158124D01*
X135638208Y-96171792D01*
X135651876Y-96188447D01*
X135662029Y-96207443D01*
X135668284Y-96228062D01*
X135671000Y-96255640D01*
X135671000Y-96764360D01*
X135668284Y-96791938D01*
X135662029Y-96812557D01*
X135651876Y-96831553D01*
X135638208Y-96848208D01*
X135621553Y-96861876D01*
X135602557Y-96872029D01*
X135581938Y-96878284D01*
X135554360Y-96881000D01*
X135095640Y-96881000D01*
X135068062Y-96878284D01*
X135047443Y-96872029D01*
X135028447Y-96861876D01*
X135011792Y-96848208D01*
X134998124Y-96831553D01*
X134987971Y-96812557D01*
X134981716Y-96791938D01*
X134979000Y-96764360D01*
X134979000Y-96255640D01*
X134981716Y-96228062D01*
X134987971Y-96207443D01*
X134998124Y-96188447D01*
X135011792Y-96171792D01*
X135028447Y-96158124D01*
X135043201Y-96150238D01*
X135063575Y-96136624D01*
X135080902Y-96119297D01*
X135094515Y-96098922D01*
X135103892Y-96076283D01*
X135108672Y-96052250D01*
X135108672Y-96027746D01*
X135103891Y-96003712D01*
X135094513Y-95981074D01*
X135080899Y-95960700D01*
X135063572Y-95943373D01*
X135043201Y-95929762D01*
X135028447Y-95921876D01*
X135011792Y-95908208D01*
X134998124Y-95891553D01*
X134987971Y-95872557D01*
X134981716Y-95851938D01*
X134979000Y-95824360D01*
X134979000Y-95315640D01*
X134981716Y-95288062D01*
X134987971Y-95267443D01*
X134998124Y-95248447D01*
X135011792Y-95231792D01*
X135028447Y-95218124D01*
X135047443Y-95207971D01*
X135068062Y-95201716D01*
X135095640Y-95199000D01*
X135554360Y-95199000D01*
X135581938Y-95201716D01*
X135581938Y-95201716D01*
G37*
G36*
X136551938Y-95201716D02*
G01*
X136572557Y-95207971D01*
X136591553Y-95218124D01*
X136608208Y-95231792D01*
X136621876Y-95248447D01*
X136632029Y-95267443D01*
X136638284Y-95288062D01*
X136641000Y-95315640D01*
X136641000Y-95824360D01*
X136638284Y-95851938D01*
X136632029Y-95872557D01*
X136621876Y-95891553D01*
X136608208Y-95908208D01*
X136591553Y-95921876D01*
X136576799Y-95929762D01*
X136556425Y-95943376D01*
X136539098Y-95960703D01*
X136525485Y-95981078D01*
X136516108Y-96003717D01*
X136511328Y-96027750D01*
X136511328Y-96052254D01*
X136516109Y-96076288D01*
X136525487Y-96098926D01*
X136539101Y-96119300D01*
X136556428Y-96136627D01*
X136576799Y-96150238D01*
X136591553Y-96158124D01*
X136608208Y-96171792D01*
X136621876Y-96188447D01*
X136632029Y-96207443D01*
X136638284Y-96228062D01*
X136641000Y-96255640D01*
X136641000Y-96764360D01*
X136638284Y-96791938D01*
X136632029Y-96812557D01*
X136621876Y-96831553D01*
X136608208Y-96848208D01*
X136591553Y-96861876D01*
X136572557Y-96872029D01*
X136551938Y-96878284D01*
X136524360Y-96881000D01*
X136065640Y-96881000D01*
X136038062Y-96878284D01*
X136017443Y-96872029D01*
X135998447Y-96861876D01*
X135981792Y-96848208D01*
X135968124Y-96831553D01*
X135957971Y-96812557D01*
X135951716Y-96791938D01*
X135949000Y-96764360D01*
X135949000Y-96255640D01*
X135951716Y-96228062D01*
X135957971Y-96207443D01*
X135968124Y-96188447D01*
X135981792Y-96171792D01*
X135998447Y-96158124D01*
X136013201Y-96150238D01*
X136033575Y-96136624D01*
X136050902Y-96119297D01*
X136064515Y-96098922D01*
X136073892Y-96076283D01*
X136078672Y-96052250D01*
X136078672Y-96027746D01*
X136073891Y-96003712D01*
X136064513Y-95981074D01*
X136050899Y-95960700D01*
X136033572Y-95943373D01*
X136013201Y-95929762D01*
X135998447Y-95921876D01*
X135981792Y-95908208D01*
X135968124Y-95891553D01*
X135957971Y-95872557D01*
X135951716Y-95851938D01*
X135949000Y-95824360D01*
X135949000Y-95315640D01*
X135951716Y-95288062D01*
X135957971Y-95267443D01*
X135968124Y-95248447D01*
X135981792Y-95231792D01*
X135998447Y-95218124D01*
X136017443Y-95207971D01*
X136038062Y-95201716D01*
X136065640Y-95199000D01*
X136524360Y-95199000D01*
X136551938Y-95201716D01*
X136551938Y-95201716D01*
G37*
G36*
X139981000Y-96576000D02*
G01*
X139179000Y-96576000D01*
X139179000Y-96024000D01*
X139981000Y-96024000D01*
X139981000Y-96576000D01*
X139981000Y-96576000D01*
G37*
G36*
X137981000Y-95926000D02*
G01*
X137179000Y-95926000D01*
X137179000Y-95374000D01*
X137981000Y-95374000D01*
X137981000Y-95926000D01*
X137981000Y-95926000D01*
G37*
G36*
X139061938Y-94081716D02*
G01*
X139082557Y-94087971D01*
X139101553Y-94098124D01*
X139118208Y-94111792D01*
X139131876Y-94128447D01*
X139142029Y-94147443D01*
X139148284Y-94168062D01*
X139151000Y-94195640D01*
X139151000Y-94704360D01*
X139148284Y-94731938D01*
X139142029Y-94752557D01*
X139131876Y-94771553D01*
X139118208Y-94788208D01*
X139101553Y-94801876D01*
X139082557Y-94812029D01*
X139061938Y-94818284D01*
X139034360Y-94821000D01*
X138575640Y-94821000D01*
X138548062Y-94818284D01*
X138527443Y-94812029D01*
X138508447Y-94801876D01*
X138491792Y-94788208D01*
X138478124Y-94771553D01*
X138467971Y-94752557D01*
X138461716Y-94731938D01*
X138459000Y-94704360D01*
X138459000Y-94195640D01*
X138461716Y-94168062D01*
X138467971Y-94147443D01*
X138478124Y-94128447D01*
X138491792Y-94111792D01*
X138508447Y-94098124D01*
X138527443Y-94087971D01*
X138548062Y-94081716D01*
X138575640Y-94079000D01*
X139034360Y-94079000D01*
X139061938Y-94081716D01*
X139061938Y-94081716D01*
G37*
G36*
X140031938Y-94081716D02*
G01*
X140052557Y-94087971D01*
X140071553Y-94098124D01*
X140088208Y-94111792D01*
X140101876Y-94128447D01*
X140112029Y-94147443D01*
X140118284Y-94168062D01*
X140120603Y-94191609D01*
X140125383Y-94215642D01*
X140134761Y-94238281D01*
X140148374Y-94258655D01*
X140165701Y-94275982D01*
X140186076Y-94289596D01*
X140208714Y-94298973D01*
X140232748Y-94303754D01*
X140257252Y-94303754D01*
X140281285Y-94298974D01*
X140303924Y-94289596D01*
X140324298Y-94275983D01*
X140341625Y-94258656D01*
X140355239Y-94238281D01*
X140364616Y-94215643D01*
X140369397Y-94191609D01*
X140371716Y-94168062D01*
X140377971Y-94147443D01*
X140388124Y-94128447D01*
X140401792Y-94111792D01*
X140418447Y-94098124D01*
X140437443Y-94087971D01*
X140458062Y-94081716D01*
X140485640Y-94079000D01*
X140994360Y-94079000D01*
X141021938Y-94081716D01*
X141042557Y-94087971D01*
X141061553Y-94098124D01*
X141078208Y-94111792D01*
X141091876Y-94128447D01*
X141102029Y-94147443D01*
X141108284Y-94168062D01*
X141111000Y-94195640D01*
X141111000Y-94654360D01*
X141108284Y-94681938D01*
X141102029Y-94702557D01*
X141091876Y-94721553D01*
X141078208Y-94738208D01*
X141061553Y-94751876D01*
X141042557Y-94762029D01*
X141021938Y-94768284D01*
X140994360Y-94771000D01*
X140485640Y-94771000D01*
X140458062Y-94768284D01*
X140437443Y-94762029D01*
X140418447Y-94751876D01*
X140401792Y-94738208D01*
X140388124Y-94721553D01*
X140377971Y-94702557D01*
X140371716Y-94681938D01*
X140370396Y-94668534D01*
X140365616Y-94644501D01*
X140356238Y-94621862D01*
X140342625Y-94601488D01*
X140325298Y-94584161D01*
X140304924Y-94570547D01*
X140282285Y-94561170D01*
X140258251Y-94556389D01*
X140233747Y-94556389D01*
X140209714Y-94561169D01*
X140187075Y-94570547D01*
X140166701Y-94584160D01*
X140149374Y-94601487D01*
X140135760Y-94621861D01*
X140126383Y-94644500D01*
X140121602Y-94668534D01*
X140121000Y-94680786D01*
X140121000Y-94704360D01*
X140118284Y-94731938D01*
X140112029Y-94752557D01*
X140101876Y-94771553D01*
X140088208Y-94788208D01*
X140071553Y-94801876D01*
X140052557Y-94812029D01*
X140031938Y-94818284D01*
X140004360Y-94821000D01*
X139545640Y-94821000D01*
X139518062Y-94818284D01*
X139497443Y-94812029D01*
X139478447Y-94801876D01*
X139461792Y-94788208D01*
X139448124Y-94771553D01*
X139437971Y-94752557D01*
X139431716Y-94731938D01*
X139429000Y-94704360D01*
X139429000Y-94195640D01*
X139431716Y-94168062D01*
X139437971Y-94147443D01*
X139448124Y-94128447D01*
X139461792Y-94111792D01*
X139478447Y-94098124D01*
X139497443Y-94087971D01*
X139518062Y-94081716D01*
X139545640Y-94079000D01*
X140004360Y-94079000D01*
X140031938Y-94081716D01*
X140031938Y-94081716D01*
G37*
G36*
X135634468Y-93263565D02*
G01*
X135673138Y-93275296D01*
X135708777Y-93294346D01*
X135740017Y-93319983D01*
X135765654Y-93351223D01*
X135784704Y-93386862D01*
X135796435Y-93425532D01*
X135801000Y-93471888D01*
X135801000Y-94548112D01*
X135796435Y-94594468D01*
X135784704Y-94633138D01*
X135765654Y-94668777D01*
X135740017Y-94700017D01*
X135708777Y-94725654D01*
X135673138Y-94744704D01*
X135634468Y-94756435D01*
X135588112Y-94761000D01*
X134936888Y-94761000D01*
X134890532Y-94756435D01*
X134851862Y-94744704D01*
X134816223Y-94725654D01*
X134784983Y-94700017D01*
X134759346Y-94668777D01*
X134740296Y-94633138D01*
X134728565Y-94594468D01*
X134724000Y-94548112D01*
X134724000Y-93471888D01*
X134728565Y-93425532D01*
X134740296Y-93386862D01*
X134759346Y-93351223D01*
X134784983Y-93319983D01*
X134816223Y-93294346D01*
X134851862Y-93275296D01*
X134890532Y-93263565D01*
X134936888Y-93259000D01*
X135588112Y-93259000D01*
X135634468Y-93263565D01*
X135634468Y-93263565D01*
G37*
G36*
X137509468Y-93263565D02*
G01*
X137548138Y-93275296D01*
X137583777Y-93294346D01*
X137615017Y-93319983D01*
X137640654Y-93351223D01*
X137659704Y-93386862D01*
X137671435Y-93425532D01*
X137676000Y-93471888D01*
X137676000Y-94548112D01*
X137671435Y-94594468D01*
X137659704Y-94633138D01*
X137640654Y-94668777D01*
X137615017Y-94700017D01*
X137583777Y-94725654D01*
X137548138Y-94744704D01*
X137509468Y-94756435D01*
X137463112Y-94761000D01*
X136811888Y-94761000D01*
X136765532Y-94756435D01*
X136726862Y-94744704D01*
X136691223Y-94725654D01*
X136659983Y-94700017D01*
X136634346Y-94668777D01*
X136615296Y-94633138D01*
X136603565Y-94594468D01*
X136599000Y-94548112D01*
X136599000Y-93471888D01*
X136603565Y-93425532D01*
X136615296Y-93386862D01*
X136634346Y-93351223D01*
X136659983Y-93319983D01*
X136691223Y-93294346D01*
X136726862Y-93275296D01*
X136765532Y-93263565D01*
X136811888Y-93259000D01*
X137463112Y-93259000D01*
X137509468Y-93263565D01*
X137509468Y-93263565D01*
G37*
G36*
X133168855Y-92952140D02*
G01*
X133232618Y-92958420D01*
X133323404Y-92985960D01*
X133355336Y-92995646D01*
X133468425Y-93056094D01*
X133567554Y-93137446D01*
X133648906Y-93236575D01*
X133709354Y-93349664D01*
X133709355Y-93349668D01*
X133746580Y-93472382D01*
X133759149Y-93600000D01*
X133746580Y-93727618D01*
X133727041Y-93792029D01*
X133709354Y-93850336D01*
X133648906Y-93963425D01*
X133567554Y-94062554D01*
X133468425Y-94143906D01*
X133355336Y-94204354D01*
X133323404Y-94214040D01*
X133232618Y-94241580D01*
X133168855Y-94247860D01*
X133136974Y-94251000D01*
X132523026Y-94251000D01*
X132491145Y-94247860D01*
X132427382Y-94241580D01*
X132336596Y-94214040D01*
X132304664Y-94204354D01*
X132191575Y-94143906D01*
X132092446Y-94062554D01*
X132011094Y-93963425D01*
X131950646Y-93850336D01*
X131932959Y-93792029D01*
X131913420Y-93727618D01*
X131900851Y-93600000D01*
X131913420Y-93472382D01*
X131950645Y-93349668D01*
X131950646Y-93349664D01*
X132011094Y-93236575D01*
X132092446Y-93137446D01*
X132191575Y-93056094D01*
X132304664Y-92995646D01*
X132336596Y-92985960D01*
X132427382Y-92958420D01*
X132491145Y-92952140D01*
X132523026Y-92949000D01*
X133136974Y-92949000D01*
X133168855Y-92952140D01*
X133168855Y-92952140D01*
G37*
G36*
X143716242Y-92863404D02*
G01*
X143753337Y-92874657D01*
X143787515Y-92892925D01*
X143817481Y-92917519D01*
X143842075Y-92947485D01*
X143860343Y-92981663D01*
X143871596Y-93018758D01*
X143876000Y-93063474D01*
X143876000Y-93956526D01*
X143871596Y-94001242D01*
X143860343Y-94038337D01*
X143842075Y-94072515D01*
X143817481Y-94102481D01*
X143787515Y-94127075D01*
X143753337Y-94145343D01*
X143716242Y-94156596D01*
X143671526Y-94161000D01*
X142228474Y-94161000D01*
X142183758Y-94156596D01*
X142146663Y-94145343D01*
X142112485Y-94127075D01*
X142082519Y-94102481D01*
X142057925Y-94072515D01*
X142039657Y-94038337D01*
X142028404Y-94001242D01*
X142024000Y-93956526D01*
X142024000Y-93063474D01*
X142028404Y-93018758D01*
X142039657Y-92981663D01*
X142057925Y-92947485D01*
X142082519Y-92917519D01*
X142112485Y-92892925D01*
X142146663Y-92874657D01*
X142183758Y-92863404D01*
X142228474Y-92859000D01*
X143671526Y-92859000D01*
X143716242Y-92863404D01*
X143716242Y-92863404D01*
G37*
G36*
X140576798Y-93042924D02*
G01*
X140590412Y-93063299D01*
X140607739Y-93080626D01*
X140628113Y-93094240D01*
X140650752Y-93103617D01*
X140674785Y-93108398D01*
X140687038Y-93109000D01*
X140994360Y-93109000D01*
X141021938Y-93111716D01*
X141042557Y-93117971D01*
X141061553Y-93128124D01*
X141078208Y-93141792D01*
X141091876Y-93158447D01*
X141102029Y-93177443D01*
X141108284Y-93198062D01*
X141111000Y-93225640D01*
X141111000Y-93684360D01*
X141108284Y-93711938D01*
X141102029Y-93732557D01*
X141091876Y-93751553D01*
X141078208Y-93768208D01*
X141061553Y-93781876D01*
X141042557Y-93792029D01*
X141021938Y-93798284D01*
X140994360Y-93801000D01*
X140485640Y-93801000D01*
X140458062Y-93798284D01*
X140437443Y-93792029D01*
X140418447Y-93781876D01*
X140401792Y-93768208D01*
X140388124Y-93751553D01*
X140377971Y-93732557D01*
X140371716Y-93711938D01*
X140369000Y-93684360D01*
X140369000Y-93225640D01*
X140371716Y-93198062D01*
X140377971Y-93177443D01*
X140388124Y-93158447D01*
X140401792Y-93141792D01*
X140418447Y-93128124D01*
X140437443Y-93117971D01*
X140458062Y-93111716D01*
X140471466Y-93110396D01*
X140495499Y-93105616D01*
X140518138Y-93096238D01*
X140538512Y-93082625D01*
X140555839Y-93065298D01*
X140569453Y-93044924D01*
X140573540Y-93035058D01*
X140576798Y-93042924D01*
X140576798Y-93042924D01*
G37*
G36*
X140706968Y-91363565D02*
G01*
X140745638Y-91375296D01*
X140781277Y-91394346D01*
X140812517Y-91419983D01*
X140838154Y-91451223D01*
X140857204Y-91486862D01*
X140868935Y-91525532D01*
X140873500Y-91571888D01*
X140873500Y-92648112D01*
X140868935Y-92694468D01*
X140857204Y-92733138D01*
X140838154Y-92768777D01*
X140812517Y-92800017D01*
X140781277Y-92825654D01*
X140745638Y-92844704D01*
X140706968Y-92856435D01*
X140674787Y-92859604D01*
X140650753Y-92864384D01*
X140628115Y-92873761D01*
X140607740Y-92887375D01*
X140590413Y-92904702D01*
X140576799Y-92925076D01*
X140572712Y-92934943D01*
X140569453Y-92927075D01*
X140555840Y-92906701D01*
X140538513Y-92889374D01*
X140518139Y-92875760D01*
X140495500Y-92866383D01*
X140471466Y-92861602D01*
X140459214Y-92861000D01*
X140009388Y-92861000D01*
X139963032Y-92856435D01*
X139924362Y-92844704D01*
X139888723Y-92825654D01*
X139857483Y-92800017D01*
X139831846Y-92768777D01*
X139812796Y-92733138D01*
X139801065Y-92694468D01*
X139796500Y-92648112D01*
X139796500Y-91571888D01*
X139801065Y-91525532D01*
X139812796Y-91486862D01*
X139831846Y-91451223D01*
X139857483Y-91419983D01*
X139888723Y-91394346D01*
X139924362Y-91375296D01*
X139963032Y-91363565D01*
X140009388Y-91359000D01*
X140660612Y-91359000D01*
X140706968Y-91363565D01*
X140706968Y-91363565D01*
G37*
G36*
X135474468Y-91363565D02*
G01*
X135513138Y-91375296D01*
X135548777Y-91394346D01*
X135580017Y-91419983D01*
X135605654Y-91451223D01*
X135624704Y-91486862D01*
X135636435Y-91525532D01*
X135641000Y-91571888D01*
X135641000Y-92648112D01*
X135636435Y-92694468D01*
X135624704Y-92733138D01*
X135605654Y-92768777D01*
X135580017Y-92800017D01*
X135548777Y-92825654D01*
X135513138Y-92844704D01*
X135474468Y-92856435D01*
X135428112Y-92861000D01*
X134776888Y-92861000D01*
X134730532Y-92856435D01*
X134691862Y-92844704D01*
X134656223Y-92825654D01*
X134624983Y-92800017D01*
X134599346Y-92768777D01*
X134580296Y-92733138D01*
X134568565Y-92694468D01*
X134564000Y-92648112D01*
X134564000Y-91571888D01*
X134568565Y-91525532D01*
X134580296Y-91486862D01*
X134599346Y-91451223D01*
X134624983Y-91419983D01*
X134656223Y-91394346D01*
X134691862Y-91375296D01*
X134730532Y-91363565D01*
X134776888Y-91359000D01*
X135428112Y-91359000D01*
X135474468Y-91363565D01*
X135474468Y-91363565D01*
G37*
G36*
X138831968Y-91363565D02*
G01*
X138870638Y-91375296D01*
X138906277Y-91394346D01*
X138937517Y-91419983D01*
X138963154Y-91451223D01*
X138982204Y-91486862D01*
X138993935Y-91525532D01*
X138998500Y-91571888D01*
X138998500Y-92648112D01*
X138993935Y-92694468D01*
X138982204Y-92733138D01*
X138963154Y-92768777D01*
X138937517Y-92800017D01*
X138906277Y-92825654D01*
X138870638Y-92844704D01*
X138831968Y-92856435D01*
X138785612Y-92861000D01*
X138134388Y-92861000D01*
X138088032Y-92856435D01*
X138049362Y-92844704D01*
X138013723Y-92825654D01*
X137982483Y-92800017D01*
X137956846Y-92768777D01*
X137937796Y-92733138D01*
X137926065Y-92694468D01*
X137921500Y-92648112D01*
X137921500Y-91571888D01*
X137926065Y-91525532D01*
X137937796Y-91486862D01*
X137956846Y-91451223D01*
X137982483Y-91419983D01*
X138013723Y-91394346D01*
X138049362Y-91375296D01*
X138088032Y-91363565D01*
X138134388Y-91359000D01*
X138785612Y-91359000D01*
X138831968Y-91363565D01*
X138831968Y-91363565D01*
G37*
G36*
X137349468Y-91363565D02*
G01*
X137388138Y-91375296D01*
X137423777Y-91394346D01*
X137455017Y-91419983D01*
X137480654Y-91451223D01*
X137499704Y-91486862D01*
X137511435Y-91525532D01*
X137516000Y-91571888D01*
X137516000Y-92648112D01*
X137511435Y-92694468D01*
X137499704Y-92733138D01*
X137480654Y-92768777D01*
X137455017Y-92800017D01*
X137423777Y-92825654D01*
X137388138Y-92844704D01*
X137349468Y-92856435D01*
X137303112Y-92861000D01*
X136651888Y-92861000D01*
X136605532Y-92856435D01*
X136566862Y-92844704D01*
X136531223Y-92825654D01*
X136499983Y-92800017D01*
X136474346Y-92768777D01*
X136455296Y-92733138D01*
X136443565Y-92694468D01*
X136439000Y-92648112D01*
X136439000Y-91571888D01*
X136443565Y-91525532D01*
X136455296Y-91486862D01*
X136474346Y-91451223D01*
X136499983Y-91419983D01*
X136531223Y-91394346D01*
X136566862Y-91375296D01*
X136605532Y-91363565D01*
X136651888Y-91359000D01*
X137303112Y-91359000D01*
X137349468Y-91363565D01*
X137349468Y-91363565D01*
G37*
G36*
X133152254Y-90950505D02*
G01*
X133232618Y-90958420D01*
X133323404Y-90985960D01*
X133355336Y-90995646D01*
X133468425Y-91056094D01*
X133567554Y-91137446D01*
X133648906Y-91236575D01*
X133709354Y-91349664D01*
X133709355Y-91349668D01*
X133746580Y-91472382D01*
X133759149Y-91600000D01*
X133746580Y-91727618D01*
X133736656Y-91760332D01*
X133709354Y-91850336D01*
X133648906Y-91963425D01*
X133567554Y-92062554D01*
X133468425Y-92143906D01*
X133355336Y-92204354D01*
X133323404Y-92214040D01*
X133232618Y-92241580D01*
X133168855Y-92247860D01*
X133136974Y-92251000D01*
X132523026Y-92251000D01*
X132491145Y-92247860D01*
X132427382Y-92241580D01*
X132336596Y-92214040D01*
X132304664Y-92204354D01*
X132191575Y-92143906D01*
X132092446Y-92062554D01*
X132011094Y-91963425D01*
X131950646Y-91850336D01*
X131923344Y-91760332D01*
X131913420Y-91727618D01*
X131900851Y-91600000D01*
X131913420Y-91472382D01*
X131950645Y-91349668D01*
X131950646Y-91349664D01*
X132011094Y-91236575D01*
X132092446Y-91137446D01*
X132191575Y-91056094D01*
X132304664Y-90995646D01*
X132336596Y-90985960D01*
X132427382Y-90958420D01*
X132507746Y-90950505D01*
X132523026Y-90949000D01*
X133136974Y-90949000D01*
X133152254Y-90950505D01*
X133152254Y-90950505D01*
G37*
G36*
X143288855Y-90862140D02*
G01*
X143352618Y-90868420D01*
X143430809Y-90892139D01*
X143475336Y-90905646D01*
X143588425Y-90966094D01*
X143687554Y-91047446D01*
X143768906Y-91146575D01*
X143829354Y-91259664D01*
X143829355Y-91259668D01*
X143866580Y-91382382D01*
X143879149Y-91510000D01*
X143866580Y-91637618D01*
X143839279Y-91727616D01*
X143829354Y-91760336D01*
X143768906Y-91873425D01*
X143687554Y-91972554D01*
X143588425Y-92053906D01*
X143475336Y-92114354D01*
X143443404Y-92124040D01*
X143352618Y-92151580D01*
X143288855Y-92157860D01*
X143256974Y-92161000D01*
X142643026Y-92161000D01*
X142611145Y-92157860D01*
X142547382Y-92151580D01*
X142456596Y-92124040D01*
X142424664Y-92114354D01*
X142311575Y-92053906D01*
X142212446Y-91972554D01*
X142131094Y-91873425D01*
X142070646Y-91760336D01*
X142060721Y-91727616D01*
X142033420Y-91637618D01*
X142020851Y-91510000D01*
X142033420Y-91382382D01*
X142070645Y-91259668D01*
X142070646Y-91259664D01*
X142131094Y-91146575D01*
X142212446Y-91047446D01*
X142311575Y-90966094D01*
X142424664Y-90905646D01*
X142469191Y-90892139D01*
X142547382Y-90868420D01*
X142611145Y-90862140D01*
X142643026Y-90859000D01*
X143256974Y-90859000D01*
X143288855Y-90862140D01*
X143288855Y-90862140D01*
G37*
G36*
X140719468Y-89473565D02*
G01*
X140758138Y-89485296D01*
X140793777Y-89504346D01*
X140825017Y-89529983D01*
X140850654Y-89561223D01*
X140869704Y-89596862D01*
X140881435Y-89635532D01*
X140886000Y-89681888D01*
X140886000Y-90758112D01*
X140881435Y-90804468D01*
X140869704Y-90843138D01*
X140850654Y-90878777D01*
X140825017Y-90910017D01*
X140793777Y-90935654D01*
X140758138Y-90954704D01*
X140719468Y-90966435D01*
X140673112Y-90971000D01*
X140021888Y-90971000D01*
X139975532Y-90966435D01*
X139936862Y-90954704D01*
X139901223Y-90935654D01*
X139869983Y-90910017D01*
X139844346Y-90878777D01*
X139825296Y-90843138D01*
X139813565Y-90804468D01*
X139809000Y-90758112D01*
X139809000Y-89681888D01*
X139813565Y-89635532D01*
X139825296Y-89596862D01*
X139844346Y-89561223D01*
X139869983Y-89529983D01*
X139901223Y-89504346D01*
X139936862Y-89485296D01*
X139975532Y-89473565D01*
X140021888Y-89469000D01*
X140673112Y-89469000D01*
X140719468Y-89473565D01*
X140719468Y-89473565D01*
G37*
G36*
X138844468Y-89473565D02*
G01*
X138883138Y-89485296D01*
X138918777Y-89504346D01*
X138950017Y-89529983D01*
X138975654Y-89561223D01*
X138994704Y-89596862D01*
X139006435Y-89635532D01*
X139011000Y-89681888D01*
X139011000Y-90758112D01*
X139006435Y-90804468D01*
X138994704Y-90843138D01*
X138975654Y-90878777D01*
X138950017Y-90910017D01*
X138918777Y-90935654D01*
X138883138Y-90954704D01*
X138844468Y-90966435D01*
X138798112Y-90971000D01*
X138146888Y-90971000D01*
X138100532Y-90966435D01*
X138061862Y-90954704D01*
X138026223Y-90935654D01*
X137994983Y-90910017D01*
X137969346Y-90878777D01*
X137950296Y-90843138D01*
X137938565Y-90804468D01*
X137934000Y-90758112D01*
X137934000Y-89681888D01*
X137938565Y-89635532D01*
X137950296Y-89596862D01*
X137969346Y-89561223D01*
X137994983Y-89529983D01*
X138026223Y-89504346D01*
X138061862Y-89485296D01*
X138100532Y-89473565D01*
X138146888Y-89469000D01*
X138798112Y-89469000D01*
X138844468Y-89473565D01*
X138844468Y-89473565D01*
G37*
G36*
X137356968Y-89453565D02*
G01*
X137395638Y-89465296D01*
X137431277Y-89484346D01*
X137462517Y-89509983D01*
X137488154Y-89541223D01*
X137507204Y-89576862D01*
X137518935Y-89615532D01*
X137523500Y-89661888D01*
X137523500Y-90738112D01*
X137518935Y-90784468D01*
X137507204Y-90823138D01*
X137488154Y-90858777D01*
X137462517Y-90890017D01*
X137431277Y-90915654D01*
X137395638Y-90934704D01*
X137356968Y-90946435D01*
X137310612Y-90951000D01*
X136659388Y-90951000D01*
X136613032Y-90946435D01*
X136574362Y-90934704D01*
X136538723Y-90915654D01*
X136507483Y-90890017D01*
X136481846Y-90858777D01*
X136462796Y-90823138D01*
X136451065Y-90784468D01*
X136446500Y-90738112D01*
X136446500Y-89661888D01*
X136451065Y-89615532D01*
X136462796Y-89576862D01*
X136481846Y-89541223D01*
X136507483Y-89509983D01*
X136538723Y-89484346D01*
X136574362Y-89465296D01*
X136613032Y-89453565D01*
X136659388Y-89449000D01*
X137310612Y-89449000D01*
X137356968Y-89453565D01*
X137356968Y-89453565D01*
G37*
G36*
X135481968Y-89453565D02*
G01*
X135520638Y-89465296D01*
X135556277Y-89484346D01*
X135587517Y-89509983D01*
X135613154Y-89541223D01*
X135632204Y-89576862D01*
X135643935Y-89615532D01*
X135648500Y-89661888D01*
X135648500Y-90738112D01*
X135643935Y-90784468D01*
X135632204Y-90823138D01*
X135613154Y-90858777D01*
X135587517Y-90890017D01*
X135556277Y-90915654D01*
X135520638Y-90934704D01*
X135481968Y-90946435D01*
X135435612Y-90951000D01*
X134784388Y-90951000D01*
X134738032Y-90946435D01*
X134699362Y-90934704D01*
X134663723Y-90915654D01*
X134632483Y-90890017D01*
X134606846Y-90858777D01*
X134587796Y-90823138D01*
X134576065Y-90784468D01*
X134571500Y-90738112D01*
X134571500Y-89661888D01*
X134576065Y-89615532D01*
X134587796Y-89576862D01*
X134606846Y-89541223D01*
X134632483Y-89509983D01*
X134663723Y-89484346D01*
X134699362Y-89465296D01*
X134738032Y-89453565D01*
X134784388Y-89449000D01*
X135435612Y-89449000D01*
X135481968Y-89453565D01*
X135481968Y-89453565D01*
G37*
G36*
X133168855Y-88952140D02*
G01*
X133232618Y-88958420D01*
X133323404Y-88985960D01*
X133355336Y-88995646D01*
X133468425Y-89056094D01*
X133567554Y-89137446D01*
X133648906Y-89236575D01*
X133709354Y-89349664D01*
X133709355Y-89349668D01*
X133746580Y-89472382D01*
X133759149Y-89600000D01*
X133746580Y-89727618D01*
X133719040Y-89818404D01*
X133709354Y-89850336D01*
X133648906Y-89963425D01*
X133567554Y-90062554D01*
X133468425Y-90143906D01*
X133355336Y-90204354D01*
X133323404Y-90214040D01*
X133232618Y-90241580D01*
X133168855Y-90247860D01*
X133136974Y-90251000D01*
X132523026Y-90251000D01*
X132491145Y-90247860D01*
X132427382Y-90241580D01*
X132336596Y-90214040D01*
X132304664Y-90204354D01*
X132191575Y-90143906D01*
X132092446Y-90062554D01*
X132011094Y-89963425D01*
X131950646Y-89850336D01*
X131940960Y-89818404D01*
X131913420Y-89727618D01*
X131900851Y-89600000D01*
X131913420Y-89472382D01*
X131950645Y-89349668D01*
X131950646Y-89349664D01*
X132011094Y-89236575D01*
X132092446Y-89137446D01*
X132191575Y-89056094D01*
X132304664Y-88995646D01*
X132336596Y-88985960D01*
X132427382Y-88958420D01*
X132491145Y-88952140D01*
X132523026Y-88949000D01*
X133136974Y-88949000D01*
X133168855Y-88952140D01*
X133168855Y-88952140D01*
G37*
G36*
X148974468Y-87803565D02*
G01*
X149013138Y-87815296D01*
X149048777Y-87834346D01*
X149080017Y-87859983D01*
X149105654Y-87891223D01*
X149124704Y-87926862D01*
X149136435Y-87965532D01*
X149141000Y-88011888D01*
X149141000Y-88663112D01*
X149136435Y-88709468D01*
X149124704Y-88748138D01*
X149105654Y-88783777D01*
X149080017Y-88815017D01*
X149048777Y-88840654D01*
X149013138Y-88859704D01*
X148974468Y-88871435D01*
X148928112Y-88876000D01*
X147851888Y-88876000D01*
X147805532Y-88871435D01*
X147766862Y-88859704D01*
X147731223Y-88840654D01*
X147699983Y-88815017D01*
X147674346Y-88783777D01*
X147655296Y-88748138D01*
X147643565Y-88709468D01*
X147639000Y-88663112D01*
X147639000Y-88011888D01*
X147643565Y-87965532D01*
X147655296Y-87926862D01*
X147674346Y-87891223D01*
X147699983Y-87859983D01*
X147731223Y-87834346D01*
X147766862Y-87815296D01*
X147805532Y-87803565D01*
X147851888Y-87799000D01*
X148928112Y-87799000D01*
X148974468Y-87803565D01*
X148974468Y-87803565D01*
G37*
G36*
X136929928Y-88106764D02*
G01*
X136951009Y-88113160D01*
X136970445Y-88123548D01*
X136987476Y-88137524D01*
X137001452Y-88154555D01*
X137011840Y-88173991D01*
X137018236Y-88195072D01*
X137021000Y-88223140D01*
X137021000Y-88686860D01*
X137018236Y-88714928D01*
X137011840Y-88736009D01*
X137001452Y-88755445D01*
X136987476Y-88772476D01*
X136970445Y-88786452D01*
X136951009Y-88796840D01*
X136929928Y-88803236D01*
X136901860Y-88806000D01*
X135088140Y-88806000D01*
X135060072Y-88803236D01*
X135038991Y-88796840D01*
X135019555Y-88786452D01*
X135002524Y-88772476D01*
X134988548Y-88755445D01*
X134978160Y-88736009D01*
X134971764Y-88714928D01*
X134969000Y-88686860D01*
X134969000Y-88223140D01*
X134971764Y-88195072D01*
X134978160Y-88173991D01*
X134988548Y-88154555D01*
X135002524Y-88137524D01*
X135019555Y-88123548D01*
X135038991Y-88113160D01*
X135060072Y-88106764D01*
X135088140Y-88104000D01*
X136901860Y-88104000D01*
X136929928Y-88106764D01*
X136929928Y-88106764D01*
G37*
G36*
X141879928Y-88106764D02*
G01*
X141901009Y-88113160D01*
X141920445Y-88123548D01*
X141937476Y-88137524D01*
X141951452Y-88154555D01*
X141961840Y-88173991D01*
X141968236Y-88195072D01*
X141971000Y-88223140D01*
X141971000Y-88686860D01*
X141968236Y-88714928D01*
X141961840Y-88736009D01*
X141951452Y-88755445D01*
X141937476Y-88772476D01*
X141920445Y-88786452D01*
X141901009Y-88796840D01*
X141879928Y-88803236D01*
X141851860Y-88806000D01*
X140038140Y-88806000D01*
X140010072Y-88803236D01*
X139988991Y-88796840D01*
X139969555Y-88786452D01*
X139952524Y-88772476D01*
X139938548Y-88755445D01*
X139928160Y-88736009D01*
X139921764Y-88714928D01*
X139919000Y-88686860D01*
X139919000Y-88223140D01*
X139921764Y-88195072D01*
X139928160Y-88173991D01*
X139938548Y-88154555D01*
X139952524Y-88137524D01*
X139969555Y-88123548D01*
X139988991Y-88113160D01*
X140010072Y-88106764D01*
X140038140Y-88104000D01*
X141851860Y-88104000D01*
X141879928Y-88106764D01*
X141879928Y-88106764D01*
G37*
G36*
X133596242Y-86953404D02*
G01*
X133633337Y-86964657D01*
X133667515Y-86982925D01*
X133697481Y-87007519D01*
X133722075Y-87037485D01*
X133740343Y-87071663D01*
X133751596Y-87108758D01*
X133756000Y-87153474D01*
X133756000Y-88046526D01*
X133751596Y-88091242D01*
X133740343Y-88128337D01*
X133722075Y-88162515D01*
X133697481Y-88192481D01*
X133667515Y-88217075D01*
X133633337Y-88235343D01*
X133596242Y-88246596D01*
X133551526Y-88251000D01*
X132108474Y-88251000D01*
X132063758Y-88246596D01*
X132026663Y-88235343D01*
X131992485Y-88217075D01*
X131962519Y-88192481D01*
X131937925Y-88162515D01*
X131919657Y-88128337D01*
X131908404Y-88091242D01*
X131904000Y-88046526D01*
X131904000Y-87153474D01*
X131908404Y-87108758D01*
X131919657Y-87071663D01*
X131937925Y-87037485D01*
X131962519Y-87007519D01*
X131992485Y-86982925D01*
X132026663Y-86964657D01*
X132063758Y-86953404D01*
X132108474Y-86949000D01*
X133551526Y-86949000D01*
X133596242Y-86953404D01*
X133596242Y-86953404D01*
G37*
G36*
X139534336Y-85002733D02*
G01*
X139564883Y-85011999D01*
X139593033Y-85027046D01*
X139617706Y-85047294D01*
X139637954Y-85071967D01*
X139653001Y-85100117D01*
X139662267Y-85130664D01*
X139666000Y-85168567D01*
X139666000Y-87931433D01*
X139662267Y-87969336D01*
X139653001Y-87999883D01*
X139637954Y-88028033D01*
X139617706Y-88052706D01*
X139593033Y-88072954D01*
X139564883Y-88088001D01*
X139534336Y-88097267D01*
X139496433Y-88101000D01*
X137443567Y-88101000D01*
X137405664Y-88097267D01*
X137375117Y-88088001D01*
X137346967Y-88072954D01*
X137322294Y-88052706D01*
X137302046Y-88028033D01*
X137286999Y-87999883D01*
X137277733Y-87969336D01*
X137274000Y-87931433D01*
X137274000Y-85168567D01*
X137277733Y-85130664D01*
X137286999Y-85100117D01*
X137302046Y-85071967D01*
X137322294Y-85047294D01*
X137346967Y-85027046D01*
X137375117Y-85011999D01*
X137405664Y-85002733D01*
X137443567Y-84999000D01*
X139496433Y-84999000D01*
X139534336Y-85002733D01*
X139534336Y-85002733D01*
G37*
G36*
X147286000Y-87751000D02*
G01*
X145684000Y-87751000D01*
X145684000Y-84049000D01*
X147286000Y-84049000D01*
X147286000Y-87751000D01*
X147286000Y-87751000D01*
G37*
G36*
X144236000Y-87751000D02*
G01*
X142634000Y-87751000D01*
X142634000Y-84049000D01*
X144236000Y-84049000D01*
X144236000Y-87751000D01*
X144236000Y-87751000D01*
G37*
G36*
X141879928Y-86836764D02*
G01*
X141901009Y-86843160D01*
X141920445Y-86853548D01*
X141937476Y-86867524D01*
X141951452Y-86884555D01*
X141961840Y-86903991D01*
X141968236Y-86925072D01*
X141971000Y-86953140D01*
X141971000Y-87416860D01*
X141968236Y-87444928D01*
X141961840Y-87466009D01*
X141951452Y-87485445D01*
X141937476Y-87502476D01*
X141920445Y-87516452D01*
X141901009Y-87526840D01*
X141879928Y-87533236D01*
X141851860Y-87536000D01*
X140038140Y-87536000D01*
X140010072Y-87533236D01*
X139988991Y-87526840D01*
X139969555Y-87516452D01*
X139952524Y-87502476D01*
X139938548Y-87485445D01*
X139928160Y-87466009D01*
X139921764Y-87444928D01*
X139919000Y-87416860D01*
X139919000Y-86953140D01*
X139921764Y-86925072D01*
X139928160Y-86903991D01*
X139938548Y-86884555D01*
X139952524Y-86867524D01*
X139969555Y-86853548D01*
X139988991Y-86843160D01*
X140010072Y-86836764D01*
X140038140Y-86834000D01*
X141851860Y-86834000D01*
X141879928Y-86836764D01*
X141879928Y-86836764D01*
G37*
G36*
X136929928Y-86836764D02*
G01*
X136951009Y-86843160D01*
X136970445Y-86853548D01*
X136987476Y-86867524D01*
X137001452Y-86884555D01*
X137011840Y-86903991D01*
X137018236Y-86925072D01*
X137021000Y-86953140D01*
X137021000Y-87416860D01*
X137018236Y-87444928D01*
X137011840Y-87466009D01*
X137001452Y-87485445D01*
X136987476Y-87502476D01*
X136970445Y-87516452D01*
X136951009Y-87526840D01*
X136929928Y-87533236D01*
X136901860Y-87536000D01*
X135088140Y-87536000D01*
X135060072Y-87533236D01*
X135038991Y-87526840D01*
X135019555Y-87516452D01*
X135002524Y-87502476D01*
X134988548Y-87485445D01*
X134978160Y-87466009D01*
X134971764Y-87444928D01*
X134969000Y-87416860D01*
X134969000Y-86953140D01*
X134971764Y-86925072D01*
X134978160Y-86903991D01*
X134988548Y-86884555D01*
X135002524Y-86867524D01*
X135019555Y-86853548D01*
X135038991Y-86843160D01*
X135060072Y-86836764D01*
X135088140Y-86834000D01*
X136901860Y-86834000D01*
X136929928Y-86836764D01*
X136929928Y-86836764D01*
G37*
G36*
X148974468Y-85928565D02*
G01*
X149013138Y-85940296D01*
X149048777Y-85959346D01*
X149080017Y-85984983D01*
X149105654Y-86016223D01*
X149124704Y-86051862D01*
X149136435Y-86090532D01*
X149141000Y-86136888D01*
X149141000Y-86788112D01*
X149136435Y-86834468D01*
X149124704Y-86873138D01*
X149105654Y-86908777D01*
X149080017Y-86940017D01*
X149048777Y-86965654D01*
X149013138Y-86984704D01*
X148974468Y-86996435D01*
X148928112Y-87001000D01*
X147851888Y-87001000D01*
X147805532Y-86996435D01*
X147766862Y-86984704D01*
X147731223Y-86965654D01*
X147699983Y-86940017D01*
X147674346Y-86908777D01*
X147655296Y-86873138D01*
X147643565Y-86834468D01*
X147639000Y-86788112D01*
X147639000Y-86136888D01*
X147643565Y-86090532D01*
X147655296Y-86051862D01*
X147674346Y-86016223D01*
X147699983Y-85984983D01*
X147731223Y-85959346D01*
X147766862Y-85940296D01*
X147805532Y-85928565D01*
X147851888Y-85924000D01*
X148928112Y-85924000D01*
X148974468Y-85928565D01*
X148974468Y-85928565D01*
G37*
G36*
X141879928Y-85566764D02*
G01*
X141901009Y-85573160D01*
X141920445Y-85583548D01*
X141937476Y-85597524D01*
X141951452Y-85614555D01*
X141961840Y-85633991D01*
X141968236Y-85655072D01*
X141971000Y-85683140D01*
X141971000Y-86146860D01*
X141968236Y-86174928D01*
X141961840Y-86196009D01*
X141951452Y-86215445D01*
X141937476Y-86232476D01*
X141920445Y-86246452D01*
X141901009Y-86256840D01*
X141879928Y-86263236D01*
X141851860Y-86266000D01*
X140038140Y-86266000D01*
X140010072Y-86263236D01*
X139988991Y-86256840D01*
X139969555Y-86246452D01*
X139952524Y-86232476D01*
X139938548Y-86215445D01*
X139928160Y-86196009D01*
X139921764Y-86174928D01*
X139919000Y-86146860D01*
X139919000Y-85683140D01*
X139921764Y-85655072D01*
X139928160Y-85633991D01*
X139938548Y-85614555D01*
X139952524Y-85597524D01*
X139969555Y-85583548D01*
X139988991Y-85573160D01*
X140010072Y-85566764D01*
X140038140Y-85564000D01*
X141851860Y-85564000D01*
X141879928Y-85566764D01*
X141879928Y-85566764D01*
G37*
G36*
X136929928Y-85566764D02*
G01*
X136951009Y-85573160D01*
X136970445Y-85583548D01*
X136987476Y-85597524D01*
X137001452Y-85614555D01*
X137011840Y-85633991D01*
X137018236Y-85655072D01*
X137021000Y-85683140D01*
X137021000Y-86146860D01*
X137018236Y-86174928D01*
X137011840Y-86196009D01*
X137001452Y-86215445D01*
X136987476Y-86232476D01*
X136970445Y-86246452D01*
X136951009Y-86256840D01*
X136929928Y-86263236D01*
X136901860Y-86266000D01*
X135088140Y-86266000D01*
X135060072Y-86263236D01*
X135038991Y-86256840D01*
X135019555Y-86246452D01*
X135002524Y-86232476D01*
X134988548Y-86215445D01*
X134978160Y-86196009D01*
X134971764Y-86174928D01*
X134969000Y-86146860D01*
X134969000Y-85683140D01*
X134971764Y-85655072D01*
X134978160Y-85633991D01*
X134988548Y-85614555D01*
X135002524Y-85597524D01*
X135019555Y-85583548D01*
X135038991Y-85573160D01*
X135060072Y-85566764D01*
X135088140Y-85564000D01*
X136901860Y-85564000D01*
X136929928Y-85566764D01*
X136929928Y-85566764D01*
G37*
G36*
X131189591Y-84158085D02*
G01*
X131223569Y-84168393D01*
X131254890Y-84185134D01*
X131282339Y-84207661D01*
X131304866Y-84235110D01*
X131321607Y-84266431D01*
X131331915Y-84300409D01*
X131336000Y-84341890D01*
X131336000Y-85018110D01*
X131331915Y-85059591D01*
X131321607Y-85093569D01*
X131304866Y-85124890D01*
X131282339Y-85152339D01*
X131254890Y-85174866D01*
X131223569Y-85191607D01*
X131189591Y-85201915D01*
X131148110Y-85206000D01*
X130546890Y-85206000D01*
X130505409Y-85201915D01*
X130471431Y-85191607D01*
X130440110Y-85174866D01*
X130412661Y-85152339D01*
X130390134Y-85124890D01*
X130373393Y-85093569D01*
X130363085Y-85059591D01*
X130359000Y-85018110D01*
X130359000Y-84341890D01*
X130363085Y-84300409D01*
X130373393Y-84266431D01*
X130390134Y-84235110D01*
X130412661Y-84207661D01*
X130440110Y-84185134D01*
X130471431Y-84168393D01*
X130505409Y-84158085D01*
X130546890Y-84154000D01*
X131148110Y-84154000D01*
X131189591Y-84158085D01*
X131189591Y-84158085D01*
G37*
G36*
X129614591Y-84158085D02*
G01*
X129648569Y-84168393D01*
X129679890Y-84185134D01*
X129707339Y-84207661D01*
X129729866Y-84235110D01*
X129746607Y-84266431D01*
X129756915Y-84300409D01*
X129761000Y-84341890D01*
X129761000Y-85018110D01*
X129756915Y-85059591D01*
X129746607Y-85093569D01*
X129729866Y-85124890D01*
X129707339Y-85152339D01*
X129679890Y-85174866D01*
X129648569Y-85191607D01*
X129614591Y-85201915D01*
X129573110Y-85206000D01*
X128971890Y-85206000D01*
X128930409Y-85201915D01*
X128896431Y-85191607D01*
X128865110Y-85174866D01*
X128837661Y-85152339D01*
X128815134Y-85124890D01*
X128798393Y-85093569D01*
X128788085Y-85059591D01*
X128784000Y-85018110D01*
X128784000Y-84341890D01*
X128788085Y-84300409D01*
X128798393Y-84266431D01*
X128815134Y-84235110D01*
X128837661Y-84207661D01*
X128865110Y-84185134D01*
X128896431Y-84168393D01*
X128930409Y-84158085D01*
X128971890Y-84154000D01*
X129573110Y-84154000D01*
X129614591Y-84158085D01*
X129614591Y-84158085D01*
G37*
G36*
X132814591Y-84148085D02*
G01*
X132848569Y-84158393D01*
X132879890Y-84175134D01*
X132907339Y-84197661D01*
X132929866Y-84225110D01*
X132946607Y-84256431D01*
X132956915Y-84290409D01*
X132961000Y-84331890D01*
X132961000Y-85008110D01*
X132956915Y-85049591D01*
X132946607Y-85083569D01*
X132929866Y-85114890D01*
X132907339Y-85142339D01*
X132879890Y-85164866D01*
X132848569Y-85181607D01*
X132814591Y-85191915D01*
X132773110Y-85196000D01*
X132171890Y-85196000D01*
X132130409Y-85191915D01*
X132096431Y-85181607D01*
X132065110Y-85164866D01*
X132037661Y-85142339D01*
X132015134Y-85114890D01*
X131998393Y-85083569D01*
X131988085Y-85049591D01*
X131984000Y-85008110D01*
X131984000Y-84331890D01*
X131988085Y-84290409D01*
X131998393Y-84256431D01*
X132015134Y-84225110D01*
X132037661Y-84197661D01*
X132065110Y-84175134D01*
X132096431Y-84158393D01*
X132130409Y-84148085D01*
X132171890Y-84144000D01*
X132773110Y-84144000D01*
X132814591Y-84148085D01*
X132814591Y-84148085D01*
G37*
G36*
X134389591Y-84148085D02*
G01*
X134423569Y-84158393D01*
X134454890Y-84175134D01*
X134482339Y-84197661D01*
X134504866Y-84225110D01*
X134521607Y-84256431D01*
X134531915Y-84290409D01*
X134536000Y-84331890D01*
X134536000Y-85008110D01*
X134531915Y-85049591D01*
X134521607Y-85083569D01*
X134504866Y-85114890D01*
X134482339Y-85142339D01*
X134454890Y-85164866D01*
X134423569Y-85181607D01*
X134389591Y-85191915D01*
X134348110Y-85196000D01*
X133746890Y-85196000D01*
X133705409Y-85191915D01*
X133671431Y-85181607D01*
X133640110Y-85164866D01*
X133612661Y-85142339D01*
X133590134Y-85114890D01*
X133573393Y-85083569D01*
X133563085Y-85049591D01*
X133559000Y-85008110D01*
X133559000Y-84331890D01*
X133563085Y-84290409D01*
X133573393Y-84256431D01*
X133590134Y-84225110D01*
X133612661Y-84197661D01*
X133640110Y-84175134D01*
X133671431Y-84158393D01*
X133705409Y-84148085D01*
X133746890Y-84144000D01*
X134348110Y-84144000D01*
X134389591Y-84148085D01*
X134389591Y-84148085D01*
G37*
G36*
X141879928Y-84296764D02*
G01*
X141901009Y-84303160D01*
X141920445Y-84313548D01*
X141937476Y-84327524D01*
X141951452Y-84344555D01*
X141961840Y-84363991D01*
X141968236Y-84385072D01*
X141971000Y-84413140D01*
X141971000Y-84876860D01*
X141968236Y-84904928D01*
X141961840Y-84926009D01*
X141951452Y-84945445D01*
X141937476Y-84962476D01*
X141920445Y-84976452D01*
X141901009Y-84986840D01*
X141879928Y-84993236D01*
X141851860Y-84996000D01*
X140038140Y-84996000D01*
X140010072Y-84993236D01*
X139988991Y-84986840D01*
X139969555Y-84976452D01*
X139952524Y-84962476D01*
X139938548Y-84945445D01*
X139928160Y-84926009D01*
X139921764Y-84904928D01*
X139919000Y-84876860D01*
X139919000Y-84413140D01*
X139921764Y-84385072D01*
X139928160Y-84363991D01*
X139938548Y-84344555D01*
X139952524Y-84327524D01*
X139969555Y-84313548D01*
X139988991Y-84303160D01*
X140010072Y-84296764D01*
X140038140Y-84294000D01*
X141851860Y-84294000D01*
X141879928Y-84296764D01*
X141879928Y-84296764D01*
G37*
G36*
X136929928Y-84296764D02*
G01*
X136951009Y-84303160D01*
X136970445Y-84313548D01*
X136987476Y-84327524D01*
X137001452Y-84344555D01*
X137011840Y-84363991D01*
X137018236Y-84385072D01*
X137021000Y-84413140D01*
X137021000Y-84876860D01*
X137018236Y-84904928D01*
X137011840Y-84926009D01*
X137001452Y-84945445D01*
X136987476Y-84962476D01*
X136970445Y-84976452D01*
X136951009Y-84986840D01*
X136929928Y-84993236D01*
X136901860Y-84996000D01*
X135088140Y-84996000D01*
X135060072Y-84993236D01*
X135038991Y-84986840D01*
X135019555Y-84976452D01*
X135002524Y-84962476D01*
X134988548Y-84945445D01*
X134978160Y-84926009D01*
X134971764Y-84904928D01*
X134969000Y-84876860D01*
X134969000Y-84413140D01*
X134971764Y-84385072D01*
X134978160Y-84363991D01*
X134988548Y-84344555D01*
X135002524Y-84327524D01*
X135019555Y-84313548D01*
X135038991Y-84303160D01*
X135060072Y-84296764D01*
X135088140Y-84294000D01*
X136901860Y-84294000D01*
X136929928Y-84296764D01*
X136929928Y-84296764D01*
G37*
M02*
