G04 #@! TF.GenerationSoftware,KiCad,Pcbnew,(5.1.4)-1*
G04 #@! TF.CreationDate,2020-03-01T13:43:41+08:00*
G04 #@! TF.ProjectId,Core-Charger,436f7265-2d43-4686-9172-6765722e6b69,rev?*
G04 #@! TF.SameCoordinates,Original*
G04 #@! TF.FileFunction,Copper,L2,Bot*
G04 #@! TF.FilePolarity,Positive*
%FSLAX46Y46*%
G04 Gerber Fmt 4.6, Leading zero omitted, Abs format (unit mm)*
G04 Created by KiCad (PCBNEW (5.1.4)-1) date 2020-03-01 13:43:41*
%MOMM*%
%LPD*%
G04 APERTURE LIST*
%ADD10C,0.020000*%
%ADD11C,1.200000*%
%ADD12O,1.750000X1.200000*%
%ADD13R,1.350000X1.350000*%
%ADD14O,1.350000X1.350000*%
%ADD15C,0.500000*%
%ADD16C,0.500000*%
%ADD17C,1.500000*%
%ADD18C,0.800000*%
%ADD19C,0.152000*%
G04 APERTURE END LIST*
D10*
G36*
X133479505Y-87001204D02*
G01*
X133503773Y-87004804D01*
X133527572Y-87010765D01*
X133550671Y-87019030D01*
X133572850Y-87029520D01*
X133593893Y-87042132D01*
X133613599Y-87056747D01*
X133631777Y-87073223D01*
X133648253Y-87091401D01*
X133662868Y-87111107D01*
X133675480Y-87132150D01*
X133685970Y-87154329D01*
X133694235Y-87177428D01*
X133700196Y-87201227D01*
X133703796Y-87225495D01*
X133705000Y-87249999D01*
X133705000Y-87950001D01*
X133703796Y-87974505D01*
X133700196Y-87998773D01*
X133694235Y-88022572D01*
X133685970Y-88045671D01*
X133675480Y-88067850D01*
X133662868Y-88088893D01*
X133648253Y-88108599D01*
X133631777Y-88126777D01*
X133613599Y-88143253D01*
X133593893Y-88157868D01*
X133572850Y-88170480D01*
X133550671Y-88180970D01*
X133527572Y-88189235D01*
X133503773Y-88195196D01*
X133479505Y-88198796D01*
X133455001Y-88200000D01*
X132204999Y-88200000D01*
X132180495Y-88198796D01*
X132156227Y-88195196D01*
X132132428Y-88189235D01*
X132109329Y-88180970D01*
X132087150Y-88170480D01*
X132066107Y-88157868D01*
X132046401Y-88143253D01*
X132028223Y-88126777D01*
X132011747Y-88108599D01*
X131997132Y-88088893D01*
X131984520Y-88067850D01*
X131974030Y-88045671D01*
X131965765Y-88022572D01*
X131959804Y-87998773D01*
X131956204Y-87974505D01*
X131955000Y-87950001D01*
X131955000Y-87249999D01*
X131956204Y-87225495D01*
X131959804Y-87201227D01*
X131965765Y-87177428D01*
X131974030Y-87154329D01*
X131984520Y-87132150D01*
X131997132Y-87111107D01*
X132011747Y-87091401D01*
X132028223Y-87073223D01*
X132046401Y-87056747D01*
X132066107Y-87042132D01*
X132087150Y-87029520D01*
X132109329Y-87019030D01*
X132132428Y-87010765D01*
X132156227Y-87004804D01*
X132180495Y-87001204D01*
X132204999Y-87000000D01*
X133455001Y-87000000D01*
X133479505Y-87001204D01*
X133479505Y-87001204D01*
G37*
D11*
X132830000Y-87600000D03*
D12*
X132830000Y-89600000D03*
X132830000Y-91600000D03*
X132830000Y-93600000D03*
D10*
G36*
X143599505Y-92911204D02*
G01*
X143623773Y-92914804D01*
X143647572Y-92920765D01*
X143670671Y-92929030D01*
X143692850Y-92939520D01*
X143713893Y-92952132D01*
X143733599Y-92966747D01*
X143751777Y-92983223D01*
X143768253Y-93001401D01*
X143782868Y-93021107D01*
X143795480Y-93042150D01*
X143805970Y-93064329D01*
X143814235Y-93087428D01*
X143820196Y-93111227D01*
X143823796Y-93135495D01*
X143825000Y-93159999D01*
X143825000Y-93860001D01*
X143823796Y-93884505D01*
X143820196Y-93908773D01*
X143814235Y-93932572D01*
X143805970Y-93955671D01*
X143795480Y-93977850D01*
X143782868Y-93998893D01*
X143768253Y-94018599D01*
X143751777Y-94036777D01*
X143733599Y-94053253D01*
X143713893Y-94067868D01*
X143692850Y-94080480D01*
X143670671Y-94090970D01*
X143647572Y-94099235D01*
X143623773Y-94105196D01*
X143599505Y-94108796D01*
X143575001Y-94110000D01*
X142324999Y-94110000D01*
X142300495Y-94108796D01*
X142276227Y-94105196D01*
X142252428Y-94099235D01*
X142229329Y-94090970D01*
X142207150Y-94080480D01*
X142186107Y-94067868D01*
X142166401Y-94053253D01*
X142148223Y-94036777D01*
X142131747Y-94018599D01*
X142117132Y-93998893D01*
X142104520Y-93977850D01*
X142094030Y-93955671D01*
X142085765Y-93932572D01*
X142079804Y-93908773D01*
X142076204Y-93884505D01*
X142075000Y-93860001D01*
X142075000Y-93159999D01*
X142076204Y-93135495D01*
X142079804Y-93111227D01*
X142085765Y-93087428D01*
X142094030Y-93064329D01*
X142104520Y-93042150D01*
X142117132Y-93021107D01*
X142131747Y-93001401D01*
X142148223Y-92983223D01*
X142166401Y-92966747D01*
X142186107Y-92952132D01*
X142207150Y-92939520D01*
X142229329Y-92929030D01*
X142252428Y-92920765D01*
X142276227Y-92914804D01*
X142300495Y-92911204D01*
X142324999Y-92910000D01*
X143575001Y-92910000D01*
X143599505Y-92911204D01*
X143599505Y-92911204D01*
G37*
D11*
X142950000Y-93510000D03*
D12*
X142950000Y-91510000D03*
D13*
X143390000Y-96630000D03*
D14*
X141390000Y-96630000D03*
D15*
X137290000Y-84620000D03*
X138180000Y-84290000D03*
X137650000Y-84250000D03*
X137150000Y-84130000D03*
X139260000Y-87790000D03*
X139280000Y-87070000D03*
X138760000Y-87170000D03*
X138740000Y-87750000D03*
X138760000Y-88310000D03*
X139310000Y-88330000D03*
X127150000Y-86090000D03*
X130460000Y-86080000D03*
X131030000Y-86300000D03*
X130470000Y-88880000D03*
X130480000Y-88270000D03*
X127180000Y-88300000D03*
X128840000Y-86640000D03*
X127240000Y-91460000D03*
X130430000Y-92680000D03*
X128250000Y-89610000D03*
X127020000Y-94800000D03*
X130400000Y-94780000D03*
X128570000Y-92750000D03*
X128620000Y-95660000D03*
X132290000Y-94900000D03*
X138570000Y-95620000D03*
X138600000Y-97080000D03*
X137800000Y-94830000D03*
X136350000Y-92960000D03*
X143100000Y-89050000D03*
X143730000Y-89070000D03*
X144960000Y-84310000D03*
X144910000Y-85370000D03*
X144930000Y-86620000D03*
X144760000Y-87760000D03*
X144260000Y-88480000D03*
X143480000Y-88490000D03*
X136360000Y-91130000D03*
X136120000Y-91560000D03*
X136330000Y-93480000D03*
X136380000Y-94670000D03*
X136930000Y-95040000D03*
X138060000Y-94420000D03*
X138300000Y-95120000D03*
X140400000Y-95400000D03*
X145230000Y-96920000D03*
X147130000Y-96910000D03*
X148750000Y-95380000D03*
X148670000Y-92890000D03*
X148630000Y-90120000D03*
X146520000Y-90050000D03*
X144850000Y-91640000D03*
X146960000Y-91650000D03*
X146410000Y-94460000D03*
X144380000Y-95020000D03*
X134700000Y-85390000D03*
X134800000Y-84070000D03*
X130950000Y-96930000D03*
X134450000Y-96960000D03*
X137060000Y-96360000D03*
X142130000Y-87120000D03*
X142080000Y-87600000D03*
X141590000Y-87710000D03*
X142380000Y-88010000D03*
X138840000Y-93240000D03*
X139350000Y-93220000D03*
X138340000Y-93250000D03*
X138610000Y-93710000D03*
X139120000Y-93700000D03*
X141090000Y-87700000D03*
X139520000Y-84080000D03*
X139540000Y-84610000D03*
X140070000Y-84010000D03*
X140580000Y-84060000D03*
X134090000Y-85820000D03*
X132829977Y-85790000D03*
X142375809Y-89067990D03*
X141230000Y-92730000D03*
D16*
X138020000Y-84130000D02*
X138180000Y-84290000D01*
X137150000Y-84130000D02*
X138020000Y-84130000D01*
X137850000Y-84620000D02*
X138180000Y-84290000D01*
X137290000Y-84620000D02*
X137850000Y-84620000D01*
D17*
X133540000Y-89600000D02*
X135440000Y-87700000D01*
X135440000Y-86470000D02*
X137290000Y-84620000D01*
X135440000Y-87700000D02*
X135440000Y-86470000D01*
X132830000Y-89600000D02*
X133540000Y-89600000D01*
X142460000Y-87510000D02*
X142414961Y-87464961D01*
X142414961Y-87464961D02*
X141880001Y-87464961D01*
X138840000Y-93240000D02*
X138840000Y-93540000D01*
X138840000Y-93070000D02*
X138840000Y-93240000D01*
X140800000Y-91110000D02*
X138840000Y-93070000D01*
X142080000Y-87600000D02*
X140800000Y-88880000D01*
X140800000Y-88880000D02*
X140800000Y-91110000D01*
D18*
X139878050Y-84271950D02*
X139878050Y-84201950D01*
X139540000Y-84610000D02*
X139878050Y-84271950D01*
D16*
X140120000Y-84060000D02*
X140111949Y-84051949D01*
X140580000Y-84060000D02*
X140120000Y-84060000D01*
X140441602Y-84551951D02*
X139540000Y-84551951D01*
X140580000Y-84413553D02*
X140441602Y-84551951D01*
X140580000Y-84060000D02*
X140580000Y-84413553D01*
D17*
X139540000Y-84706294D02*
X137222500Y-87023794D01*
X139540000Y-84551951D02*
X139540000Y-84706294D01*
X137222500Y-87023794D02*
X137222500Y-88577500D01*
X137222500Y-88577500D02*
X134200000Y-91600000D01*
X134200000Y-91600000D02*
X132830000Y-91600000D01*
D19*
X134060000Y-85790000D02*
X134090000Y-85820000D01*
X132829977Y-85790000D02*
X134060000Y-85790000D01*
X141778011Y-89665788D02*
X141778011Y-92181989D01*
X141479999Y-92480001D02*
X141230000Y-92730000D01*
X141778011Y-92181989D02*
X141479999Y-92480001D01*
X142375809Y-89067990D02*
X141778011Y-89665788D01*
G36*
X147824487Y-83962034D02*
G01*
X147732131Y-84100256D01*
X147668515Y-84253839D01*
X147636083Y-84416881D01*
X147636083Y-84583119D01*
X147668515Y-84746161D01*
X147732131Y-84899744D01*
X147824487Y-85037966D01*
X147942034Y-85155513D01*
X148080256Y-85247869D01*
X148233839Y-85311485D01*
X148396881Y-85343917D01*
X148563119Y-85343917D01*
X148726161Y-85311485D01*
X148879744Y-85247869D01*
X149017966Y-85155513D01*
X149102001Y-85071478D01*
X149102000Y-96128521D01*
X149017966Y-96044487D01*
X148879744Y-95952131D01*
X148726161Y-95888515D01*
X148563119Y-95856083D01*
X148396881Y-95856083D01*
X148233839Y-95888515D01*
X148080256Y-95952131D01*
X147942034Y-96044487D01*
X147824487Y-96162034D01*
X147732131Y-96300256D01*
X147668515Y-96453839D01*
X147636083Y-96616881D01*
X147636083Y-96783119D01*
X147668515Y-96946161D01*
X147732131Y-97099744D01*
X147824487Y-97237966D01*
X147908521Y-97322000D01*
X141970203Y-97322000D01*
X142031607Y-97271607D01*
X142144450Y-97134107D01*
X142228300Y-96977235D01*
X142279934Y-96807019D01*
X142297369Y-96630000D01*
X142279934Y-96452981D01*
X142228300Y-96282765D01*
X142144450Y-96125893D01*
X142031607Y-95988393D01*
X141894107Y-95875550D01*
X141737235Y-95791700D01*
X141567019Y-95740066D01*
X141434359Y-95727000D01*
X141345641Y-95727000D01*
X141212981Y-95740066D01*
X141042765Y-95791700D01*
X140885893Y-95875550D01*
X140748393Y-95988393D01*
X140635550Y-96125893D01*
X140551700Y-96282765D01*
X140500066Y-96452981D01*
X140482631Y-96630000D01*
X140500066Y-96807019D01*
X140551700Y-96977235D01*
X140635550Y-97134107D01*
X140748393Y-97271607D01*
X140809797Y-97322000D01*
X127851479Y-97322000D01*
X127935513Y-97237966D01*
X128027869Y-97099744D01*
X128091485Y-96946161D01*
X128123917Y-96783119D01*
X128123917Y-96616881D01*
X128091485Y-96453839D01*
X128027869Y-96300256D01*
X127935513Y-96162034D01*
X127817966Y-96044487D01*
X127679744Y-95952131D01*
X127526161Y-95888515D01*
X127363119Y-95856083D01*
X127196881Y-95856083D01*
X127033839Y-95888515D01*
X126880256Y-95952131D01*
X126742034Y-96044487D01*
X126658000Y-96128521D01*
X126658000Y-93600000D01*
X131722994Y-93600000D01*
X131738981Y-93762316D01*
X131786327Y-93918395D01*
X131863212Y-94062238D01*
X131966683Y-94188317D01*
X132092762Y-94291788D01*
X132236605Y-94368673D01*
X132392684Y-94416019D01*
X132514327Y-94428000D01*
X133145673Y-94428000D01*
X133267316Y-94416019D01*
X133423395Y-94368673D01*
X133567238Y-94291788D01*
X133693317Y-94188317D01*
X133796788Y-94062238D01*
X133873673Y-93918395D01*
X133921019Y-93762316D01*
X133937006Y-93600000D01*
X133921019Y-93437684D01*
X133873673Y-93281605D01*
X133796788Y-93137762D01*
X133741177Y-93070000D01*
X137857269Y-93070000D01*
X137862000Y-93118037D01*
X137862000Y-93588045D01*
X137876151Y-93731722D01*
X137932074Y-93916075D01*
X138022888Y-94085977D01*
X138145105Y-94234896D01*
X138294024Y-94357112D01*
X138463926Y-94447926D01*
X138648279Y-94503849D01*
X138840000Y-94522732D01*
X139031722Y-94503849D01*
X139216075Y-94447926D01*
X139385977Y-94357112D01*
X139534896Y-94234896D01*
X139657112Y-94085977D01*
X139747926Y-93916075D01*
X139803849Y-93731721D01*
X139818000Y-93588044D01*
X139818000Y-93475100D01*
X140840399Y-92452701D01*
X140806402Y-92503582D01*
X140770369Y-92590572D01*
X140752000Y-92682921D01*
X140752000Y-92777079D01*
X140770369Y-92869428D01*
X140806402Y-92956418D01*
X140858713Y-93034707D01*
X140925293Y-93101287D01*
X141003582Y-93153598D01*
X141090572Y-93189631D01*
X141182921Y-93208000D01*
X141277079Y-93208000D01*
X141369428Y-93189631D01*
X141456418Y-93153598D01*
X141534707Y-93101287D01*
X141601287Y-93034707D01*
X141653598Y-92956418D01*
X141689631Y-92869428D01*
X141708000Y-92777079D01*
X141708000Y-92682921D01*
X141707834Y-92682086D01*
X141982417Y-92407504D01*
X141994011Y-92397989D01*
X142032000Y-92351699D01*
X142060228Y-92298887D01*
X142077611Y-92241583D01*
X142082011Y-92196913D01*
X142083481Y-92181989D01*
X142082011Y-92167065D01*
X142082011Y-92092624D01*
X142086683Y-92098317D01*
X142212762Y-92201788D01*
X142356605Y-92278673D01*
X142512684Y-92326019D01*
X142634327Y-92338000D01*
X143265673Y-92338000D01*
X143387316Y-92326019D01*
X143543395Y-92278673D01*
X143687238Y-92201788D01*
X143813317Y-92098317D01*
X143916788Y-91972238D01*
X143993673Y-91828395D01*
X144041019Y-91672316D01*
X144057006Y-91510000D01*
X144041019Y-91347684D01*
X143993673Y-91191605D01*
X143916788Y-91047762D01*
X143813317Y-90921683D01*
X143687238Y-90818212D01*
X143543395Y-90741327D01*
X143387316Y-90693981D01*
X143265673Y-90682000D01*
X142634327Y-90682000D01*
X142512684Y-90693981D01*
X142356605Y-90741327D01*
X142212762Y-90818212D01*
X142086683Y-90921683D01*
X142082011Y-90927376D01*
X142082011Y-89791708D01*
X142327896Y-89545824D01*
X142328730Y-89545990D01*
X142422888Y-89545990D01*
X142515237Y-89527621D01*
X142602227Y-89491588D01*
X142680516Y-89439277D01*
X142747096Y-89372697D01*
X142799407Y-89294408D01*
X142835440Y-89207418D01*
X142853809Y-89115069D01*
X142853809Y-89020911D01*
X142835440Y-88928562D01*
X142799407Y-88841572D01*
X142747096Y-88763283D01*
X142680516Y-88696703D01*
X142602227Y-88644392D01*
X142515237Y-88608359D01*
X142464778Y-88598322D01*
X142582427Y-88480674D01*
X142651721Y-88473849D01*
X142836075Y-88417925D01*
X143005976Y-88327112D01*
X143154896Y-88204896D01*
X143277112Y-88055976D01*
X143367925Y-87886075D01*
X143423849Y-87701721D01*
X143442731Y-87510000D01*
X143423849Y-87318279D01*
X143367925Y-87133925D01*
X143277112Y-86964024D01*
X143185523Y-86852423D01*
X143140485Y-86807385D01*
X143109857Y-86770065D01*
X142960938Y-86647849D01*
X142791036Y-86557035D01*
X142606683Y-86501112D01*
X142463006Y-86486961D01*
X142462998Y-86486961D01*
X142414961Y-86482230D01*
X142366924Y-86486961D01*
X141831956Y-86486961D01*
X141688279Y-86501112D01*
X141503926Y-86557035D01*
X141334024Y-86647849D01*
X141185105Y-86770065D01*
X141062889Y-86918984D01*
X140972075Y-87088886D01*
X140922609Y-87251952D01*
X140863582Y-87276402D01*
X140785293Y-87328713D01*
X140718713Y-87395293D01*
X140666402Y-87473582D01*
X140630369Y-87560572D01*
X140612000Y-87652921D01*
X140612000Y-87684900D01*
X140142424Y-88154476D01*
X140105104Y-88185104D01*
X139982888Y-88334023D01*
X139892074Y-88503926D01*
X139836151Y-88688279D01*
X139822000Y-88831956D01*
X139822000Y-88831963D01*
X139817269Y-88880000D01*
X139822000Y-88928037D01*
X139822001Y-90704898D01*
X138182424Y-92344476D01*
X138145104Y-92375104D01*
X138022888Y-92524023D01*
X137932074Y-92693926D01*
X137876151Y-92878279D01*
X137862000Y-93021956D01*
X137862000Y-93021963D01*
X137857269Y-93070000D01*
X133741177Y-93070000D01*
X133693317Y-93011683D01*
X133567238Y-92908212D01*
X133423395Y-92831327D01*
X133267316Y-92783981D01*
X133145673Y-92772000D01*
X132514327Y-92772000D01*
X132392684Y-92783981D01*
X132236605Y-92831327D01*
X132092762Y-92908212D01*
X131966683Y-93011683D01*
X131863212Y-93137762D01*
X131786327Y-93281605D01*
X131738981Y-93437684D01*
X131722994Y-93600000D01*
X126658000Y-93600000D01*
X126658000Y-85742921D01*
X132351977Y-85742921D01*
X132351977Y-85837079D01*
X132370346Y-85929428D01*
X132406379Y-86016418D01*
X132458690Y-86094707D01*
X132525270Y-86161287D01*
X132603559Y-86213598D01*
X132690549Y-86249631D01*
X132782898Y-86268000D01*
X132877056Y-86268000D01*
X132969405Y-86249631D01*
X133056395Y-86213598D01*
X133134684Y-86161287D01*
X133201264Y-86094707D01*
X133201736Y-86094000D01*
X133698195Y-86094000D01*
X133718713Y-86124707D01*
X133785293Y-86191287D01*
X133863582Y-86243598D01*
X133950572Y-86279631D01*
X134042921Y-86298000D01*
X134137079Y-86298000D01*
X134229428Y-86279631D01*
X134316418Y-86243598D01*
X134394707Y-86191287D01*
X134461287Y-86124707D01*
X134513598Y-86046418D01*
X134549631Y-85959428D01*
X134568000Y-85867079D01*
X134568000Y-85772921D01*
X134549631Y-85680572D01*
X134513598Y-85593582D01*
X134461287Y-85515293D01*
X134394707Y-85448713D01*
X134316418Y-85396402D01*
X134229428Y-85360369D01*
X134137079Y-85342000D01*
X134042921Y-85342000D01*
X133950572Y-85360369D01*
X133863582Y-85396402D01*
X133785293Y-85448713D01*
X133748006Y-85486000D01*
X133201736Y-85486000D01*
X133201264Y-85485293D01*
X133134684Y-85418713D01*
X133056395Y-85366402D01*
X132969405Y-85330369D01*
X132877056Y-85312000D01*
X132782898Y-85312000D01*
X132690549Y-85330369D01*
X132603559Y-85366402D01*
X132525270Y-85418713D01*
X132458690Y-85485293D01*
X132406379Y-85563582D01*
X132370346Y-85650572D01*
X132351977Y-85742921D01*
X126658000Y-85742921D01*
X126658000Y-85071479D01*
X126742034Y-85155513D01*
X126880256Y-85247869D01*
X127033839Y-85311485D01*
X127196881Y-85343917D01*
X127363119Y-85343917D01*
X127526161Y-85311485D01*
X127679744Y-85247869D01*
X127817966Y-85155513D01*
X127935513Y-85037966D01*
X128027869Y-84899744D01*
X128091485Y-84746161D01*
X128123917Y-84583119D01*
X128123917Y-84416881D01*
X128091485Y-84253839D01*
X128027869Y-84100256D01*
X127935513Y-83962034D01*
X127851475Y-83877996D01*
X136652554Y-83877955D01*
X136632422Y-83894477D01*
X134782420Y-85744480D01*
X134745105Y-85775104D01*
X134714481Y-85812419D01*
X134714477Y-85812423D01*
X134622888Y-85924024D01*
X134532075Y-86093925D01*
X134476151Y-86278279D01*
X134457269Y-86470000D01*
X134462001Y-86518046D01*
X134462000Y-87294899D01*
X133134900Y-88622000D01*
X132781955Y-88622000D01*
X132638278Y-88636151D01*
X132453925Y-88692074D01*
X132284023Y-88782888D01*
X132203327Y-88849114D01*
X132092762Y-88908212D01*
X131966683Y-89011683D01*
X131863212Y-89137762D01*
X131786327Y-89281605D01*
X131738981Y-89437684D01*
X131722994Y-89600000D01*
X131738981Y-89762316D01*
X131786327Y-89918395D01*
X131863212Y-90062238D01*
X131966683Y-90188317D01*
X132092762Y-90291788D01*
X132203327Y-90350886D01*
X132284023Y-90417112D01*
X132453925Y-90507926D01*
X132638278Y-90563849D01*
X132781955Y-90578000D01*
X133491963Y-90578000D01*
X133540000Y-90582731D01*
X133588037Y-90578000D01*
X133588045Y-90578000D01*
X133731722Y-90563849D01*
X133905882Y-90511018D01*
X133794900Y-90622000D01*
X132781955Y-90622000D01*
X132638278Y-90636151D01*
X132453925Y-90692074D01*
X132284023Y-90782888D01*
X132203327Y-90849114D01*
X132092762Y-90908212D01*
X131966683Y-91011683D01*
X131863212Y-91137762D01*
X131786327Y-91281605D01*
X131738981Y-91437684D01*
X131722994Y-91600000D01*
X131738981Y-91762316D01*
X131786327Y-91918395D01*
X131863212Y-92062238D01*
X131966683Y-92188317D01*
X132092762Y-92291788D01*
X132203327Y-92350886D01*
X132284023Y-92417112D01*
X132453925Y-92507926D01*
X132638278Y-92563849D01*
X132781955Y-92578000D01*
X134151963Y-92578000D01*
X134200000Y-92582731D01*
X134248037Y-92578000D01*
X134248045Y-92578000D01*
X134391722Y-92563849D01*
X134576075Y-92507926D01*
X134745977Y-92417112D01*
X134894896Y-92294896D01*
X134925524Y-92257576D01*
X137880081Y-89303020D01*
X137917396Y-89272396D01*
X137948020Y-89235081D01*
X137948023Y-89235078D01*
X138027888Y-89137762D01*
X138039612Y-89123477D01*
X138130426Y-88953575D01*
X138186349Y-88769222D01*
X138200500Y-88625545D01*
X138200500Y-88625530D01*
X138205230Y-88577501D01*
X138200500Y-88529471D01*
X138200500Y-87428894D01*
X140197581Y-85431814D01*
X140234896Y-85401190D01*
X140265520Y-85363875D01*
X140265523Y-85363872D01*
X140357112Y-85252271D01*
X140447925Y-85082370D01*
X140447926Y-85082369D01*
X140463788Y-85030078D01*
X140465076Y-85029951D01*
X140535306Y-85023034D01*
X140625409Y-84995701D01*
X140708449Y-84951316D01*
X140781234Y-84891583D01*
X140796204Y-84873342D01*
X140901391Y-84768155D01*
X140919632Y-84753185D01*
X140979365Y-84680400D01*
X141023750Y-84597360D01*
X141051083Y-84507257D01*
X141058000Y-84437026D01*
X141058000Y-84437018D01*
X141060311Y-84413554D01*
X141058000Y-84390090D01*
X141058000Y-84083474D01*
X141060312Y-84060000D01*
X141058000Y-84036526D01*
X141058000Y-84012921D01*
X141053395Y-83989769D01*
X141051083Y-83966296D01*
X141044237Y-83943728D01*
X141039631Y-83920572D01*
X141030595Y-83898758D01*
X141024278Y-83877934D01*
X147908619Y-83877902D01*
X147824487Y-83962034D01*
X147824487Y-83962034D01*
G37*
X147824487Y-83962034D02*
X147732131Y-84100256D01*
X147668515Y-84253839D01*
X147636083Y-84416881D01*
X147636083Y-84583119D01*
X147668515Y-84746161D01*
X147732131Y-84899744D01*
X147824487Y-85037966D01*
X147942034Y-85155513D01*
X148080256Y-85247869D01*
X148233839Y-85311485D01*
X148396881Y-85343917D01*
X148563119Y-85343917D01*
X148726161Y-85311485D01*
X148879744Y-85247869D01*
X149017966Y-85155513D01*
X149102001Y-85071478D01*
X149102000Y-96128521D01*
X149017966Y-96044487D01*
X148879744Y-95952131D01*
X148726161Y-95888515D01*
X148563119Y-95856083D01*
X148396881Y-95856083D01*
X148233839Y-95888515D01*
X148080256Y-95952131D01*
X147942034Y-96044487D01*
X147824487Y-96162034D01*
X147732131Y-96300256D01*
X147668515Y-96453839D01*
X147636083Y-96616881D01*
X147636083Y-96783119D01*
X147668515Y-96946161D01*
X147732131Y-97099744D01*
X147824487Y-97237966D01*
X147908521Y-97322000D01*
X141970203Y-97322000D01*
X142031607Y-97271607D01*
X142144450Y-97134107D01*
X142228300Y-96977235D01*
X142279934Y-96807019D01*
X142297369Y-96630000D01*
X142279934Y-96452981D01*
X142228300Y-96282765D01*
X142144450Y-96125893D01*
X142031607Y-95988393D01*
X141894107Y-95875550D01*
X141737235Y-95791700D01*
X141567019Y-95740066D01*
X141434359Y-95727000D01*
X141345641Y-95727000D01*
X141212981Y-95740066D01*
X141042765Y-95791700D01*
X140885893Y-95875550D01*
X140748393Y-95988393D01*
X140635550Y-96125893D01*
X140551700Y-96282765D01*
X140500066Y-96452981D01*
X140482631Y-96630000D01*
X140500066Y-96807019D01*
X140551700Y-96977235D01*
X140635550Y-97134107D01*
X140748393Y-97271607D01*
X140809797Y-97322000D01*
X127851479Y-97322000D01*
X127935513Y-97237966D01*
X128027869Y-97099744D01*
X128091485Y-96946161D01*
X128123917Y-96783119D01*
X128123917Y-96616881D01*
X128091485Y-96453839D01*
X128027869Y-96300256D01*
X127935513Y-96162034D01*
X127817966Y-96044487D01*
X127679744Y-95952131D01*
X127526161Y-95888515D01*
X127363119Y-95856083D01*
X127196881Y-95856083D01*
X127033839Y-95888515D01*
X126880256Y-95952131D01*
X126742034Y-96044487D01*
X126658000Y-96128521D01*
X126658000Y-93600000D01*
X131722994Y-93600000D01*
X131738981Y-93762316D01*
X131786327Y-93918395D01*
X131863212Y-94062238D01*
X131966683Y-94188317D01*
X132092762Y-94291788D01*
X132236605Y-94368673D01*
X132392684Y-94416019D01*
X132514327Y-94428000D01*
X133145673Y-94428000D01*
X133267316Y-94416019D01*
X133423395Y-94368673D01*
X133567238Y-94291788D01*
X133693317Y-94188317D01*
X133796788Y-94062238D01*
X133873673Y-93918395D01*
X133921019Y-93762316D01*
X133937006Y-93600000D01*
X133921019Y-93437684D01*
X133873673Y-93281605D01*
X133796788Y-93137762D01*
X133741177Y-93070000D01*
X137857269Y-93070000D01*
X137862000Y-93118037D01*
X137862000Y-93588045D01*
X137876151Y-93731722D01*
X137932074Y-93916075D01*
X138022888Y-94085977D01*
X138145105Y-94234896D01*
X138294024Y-94357112D01*
X138463926Y-94447926D01*
X138648279Y-94503849D01*
X138840000Y-94522732D01*
X139031722Y-94503849D01*
X139216075Y-94447926D01*
X139385977Y-94357112D01*
X139534896Y-94234896D01*
X139657112Y-94085977D01*
X139747926Y-93916075D01*
X139803849Y-93731721D01*
X139818000Y-93588044D01*
X139818000Y-93475100D01*
X140840399Y-92452701D01*
X140806402Y-92503582D01*
X140770369Y-92590572D01*
X140752000Y-92682921D01*
X140752000Y-92777079D01*
X140770369Y-92869428D01*
X140806402Y-92956418D01*
X140858713Y-93034707D01*
X140925293Y-93101287D01*
X141003582Y-93153598D01*
X141090572Y-93189631D01*
X141182921Y-93208000D01*
X141277079Y-93208000D01*
X141369428Y-93189631D01*
X141456418Y-93153598D01*
X141534707Y-93101287D01*
X141601287Y-93034707D01*
X141653598Y-92956418D01*
X141689631Y-92869428D01*
X141708000Y-92777079D01*
X141708000Y-92682921D01*
X141707834Y-92682086D01*
X141982417Y-92407504D01*
X141994011Y-92397989D01*
X142032000Y-92351699D01*
X142060228Y-92298887D01*
X142077611Y-92241583D01*
X142082011Y-92196913D01*
X142083481Y-92181989D01*
X142082011Y-92167065D01*
X142082011Y-92092624D01*
X142086683Y-92098317D01*
X142212762Y-92201788D01*
X142356605Y-92278673D01*
X142512684Y-92326019D01*
X142634327Y-92338000D01*
X143265673Y-92338000D01*
X143387316Y-92326019D01*
X143543395Y-92278673D01*
X143687238Y-92201788D01*
X143813317Y-92098317D01*
X143916788Y-91972238D01*
X143993673Y-91828395D01*
X144041019Y-91672316D01*
X144057006Y-91510000D01*
X144041019Y-91347684D01*
X143993673Y-91191605D01*
X143916788Y-91047762D01*
X143813317Y-90921683D01*
X143687238Y-90818212D01*
X143543395Y-90741327D01*
X143387316Y-90693981D01*
X143265673Y-90682000D01*
X142634327Y-90682000D01*
X142512684Y-90693981D01*
X142356605Y-90741327D01*
X142212762Y-90818212D01*
X142086683Y-90921683D01*
X142082011Y-90927376D01*
X142082011Y-89791708D01*
X142327896Y-89545824D01*
X142328730Y-89545990D01*
X142422888Y-89545990D01*
X142515237Y-89527621D01*
X142602227Y-89491588D01*
X142680516Y-89439277D01*
X142747096Y-89372697D01*
X142799407Y-89294408D01*
X142835440Y-89207418D01*
X142853809Y-89115069D01*
X142853809Y-89020911D01*
X142835440Y-88928562D01*
X142799407Y-88841572D01*
X142747096Y-88763283D01*
X142680516Y-88696703D01*
X142602227Y-88644392D01*
X142515237Y-88608359D01*
X142464778Y-88598322D01*
X142582427Y-88480674D01*
X142651721Y-88473849D01*
X142836075Y-88417925D01*
X143005976Y-88327112D01*
X143154896Y-88204896D01*
X143277112Y-88055976D01*
X143367925Y-87886075D01*
X143423849Y-87701721D01*
X143442731Y-87510000D01*
X143423849Y-87318279D01*
X143367925Y-87133925D01*
X143277112Y-86964024D01*
X143185523Y-86852423D01*
X143140485Y-86807385D01*
X143109857Y-86770065D01*
X142960938Y-86647849D01*
X142791036Y-86557035D01*
X142606683Y-86501112D01*
X142463006Y-86486961D01*
X142462998Y-86486961D01*
X142414961Y-86482230D01*
X142366924Y-86486961D01*
X141831956Y-86486961D01*
X141688279Y-86501112D01*
X141503926Y-86557035D01*
X141334024Y-86647849D01*
X141185105Y-86770065D01*
X141062889Y-86918984D01*
X140972075Y-87088886D01*
X140922609Y-87251952D01*
X140863582Y-87276402D01*
X140785293Y-87328713D01*
X140718713Y-87395293D01*
X140666402Y-87473582D01*
X140630369Y-87560572D01*
X140612000Y-87652921D01*
X140612000Y-87684900D01*
X140142424Y-88154476D01*
X140105104Y-88185104D01*
X139982888Y-88334023D01*
X139892074Y-88503926D01*
X139836151Y-88688279D01*
X139822000Y-88831956D01*
X139822000Y-88831963D01*
X139817269Y-88880000D01*
X139822000Y-88928037D01*
X139822001Y-90704898D01*
X138182424Y-92344476D01*
X138145104Y-92375104D01*
X138022888Y-92524023D01*
X137932074Y-92693926D01*
X137876151Y-92878279D01*
X137862000Y-93021956D01*
X137862000Y-93021963D01*
X137857269Y-93070000D01*
X133741177Y-93070000D01*
X133693317Y-93011683D01*
X133567238Y-92908212D01*
X133423395Y-92831327D01*
X133267316Y-92783981D01*
X133145673Y-92772000D01*
X132514327Y-92772000D01*
X132392684Y-92783981D01*
X132236605Y-92831327D01*
X132092762Y-92908212D01*
X131966683Y-93011683D01*
X131863212Y-93137762D01*
X131786327Y-93281605D01*
X131738981Y-93437684D01*
X131722994Y-93600000D01*
X126658000Y-93600000D01*
X126658000Y-85742921D01*
X132351977Y-85742921D01*
X132351977Y-85837079D01*
X132370346Y-85929428D01*
X132406379Y-86016418D01*
X132458690Y-86094707D01*
X132525270Y-86161287D01*
X132603559Y-86213598D01*
X132690549Y-86249631D01*
X132782898Y-86268000D01*
X132877056Y-86268000D01*
X132969405Y-86249631D01*
X133056395Y-86213598D01*
X133134684Y-86161287D01*
X133201264Y-86094707D01*
X133201736Y-86094000D01*
X133698195Y-86094000D01*
X133718713Y-86124707D01*
X133785293Y-86191287D01*
X133863582Y-86243598D01*
X133950572Y-86279631D01*
X134042921Y-86298000D01*
X134137079Y-86298000D01*
X134229428Y-86279631D01*
X134316418Y-86243598D01*
X134394707Y-86191287D01*
X134461287Y-86124707D01*
X134513598Y-86046418D01*
X134549631Y-85959428D01*
X134568000Y-85867079D01*
X134568000Y-85772921D01*
X134549631Y-85680572D01*
X134513598Y-85593582D01*
X134461287Y-85515293D01*
X134394707Y-85448713D01*
X134316418Y-85396402D01*
X134229428Y-85360369D01*
X134137079Y-85342000D01*
X134042921Y-85342000D01*
X133950572Y-85360369D01*
X133863582Y-85396402D01*
X133785293Y-85448713D01*
X133748006Y-85486000D01*
X133201736Y-85486000D01*
X133201264Y-85485293D01*
X133134684Y-85418713D01*
X133056395Y-85366402D01*
X132969405Y-85330369D01*
X132877056Y-85312000D01*
X132782898Y-85312000D01*
X132690549Y-85330369D01*
X132603559Y-85366402D01*
X132525270Y-85418713D01*
X132458690Y-85485293D01*
X132406379Y-85563582D01*
X132370346Y-85650572D01*
X132351977Y-85742921D01*
X126658000Y-85742921D01*
X126658000Y-85071479D01*
X126742034Y-85155513D01*
X126880256Y-85247869D01*
X127033839Y-85311485D01*
X127196881Y-85343917D01*
X127363119Y-85343917D01*
X127526161Y-85311485D01*
X127679744Y-85247869D01*
X127817966Y-85155513D01*
X127935513Y-85037966D01*
X128027869Y-84899744D01*
X128091485Y-84746161D01*
X128123917Y-84583119D01*
X128123917Y-84416881D01*
X128091485Y-84253839D01*
X128027869Y-84100256D01*
X127935513Y-83962034D01*
X127851475Y-83877996D01*
X136652554Y-83877955D01*
X136632422Y-83894477D01*
X134782420Y-85744480D01*
X134745105Y-85775104D01*
X134714481Y-85812419D01*
X134714477Y-85812423D01*
X134622888Y-85924024D01*
X134532075Y-86093925D01*
X134476151Y-86278279D01*
X134457269Y-86470000D01*
X134462001Y-86518046D01*
X134462000Y-87294899D01*
X133134900Y-88622000D01*
X132781955Y-88622000D01*
X132638278Y-88636151D01*
X132453925Y-88692074D01*
X132284023Y-88782888D01*
X132203327Y-88849114D01*
X132092762Y-88908212D01*
X131966683Y-89011683D01*
X131863212Y-89137762D01*
X131786327Y-89281605D01*
X131738981Y-89437684D01*
X131722994Y-89600000D01*
X131738981Y-89762316D01*
X131786327Y-89918395D01*
X131863212Y-90062238D01*
X131966683Y-90188317D01*
X132092762Y-90291788D01*
X132203327Y-90350886D01*
X132284023Y-90417112D01*
X132453925Y-90507926D01*
X132638278Y-90563849D01*
X132781955Y-90578000D01*
X133491963Y-90578000D01*
X133540000Y-90582731D01*
X133588037Y-90578000D01*
X133588045Y-90578000D01*
X133731722Y-90563849D01*
X133905882Y-90511018D01*
X133794900Y-90622000D01*
X132781955Y-90622000D01*
X132638278Y-90636151D01*
X132453925Y-90692074D01*
X132284023Y-90782888D01*
X132203327Y-90849114D01*
X132092762Y-90908212D01*
X131966683Y-91011683D01*
X131863212Y-91137762D01*
X131786327Y-91281605D01*
X131738981Y-91437684D01*
X131722994Y-91600000D01*
X131738981Y-91762316D01*
X131786327Y-91918395D01*
X131863212Y-92062238D01*
X131966683Y-92188317D01*
X132092762Y-92291788D01*
X132203327Y-92350886D01*
X132284023Y-92417112D01*
X132453925Y-92507926D01*
X132638278Y-92563849D01*
X132781955Y-92578000D01*
X134151963Y-92578000D01*
X134200000Y-92582731D01*
X134248037Y-92578000D01*
X134248045Y-92578000D01*
X134391722Y-92563849D01*
X134576075Y-92507926D01*
X134745977Y-92417112D01*
X134894896Y-92294896D01*
X134925524Y-92257576D01*
X137880081Y-89303020D01*
X137917396Y-89272396D01*
X137948020Y-89235081D01*
X137948023Y-89235078D01*
X138027888Y-89137762D01*
X138039612Y-89123477D01*
X138130426Y-88953575D01*
X138186349Y-88769222D01*
X138200500Y-88625545D01*
X138200500Y-88625530D01*
X138205230Y-88577501D01*
X138200500Y-88529471D01*
X138200500Y-87428894D01*
X140197581Y-85431814D01*
X140234896Y-85401190D01*
X140265520Y-85363875D01*
X140265523Y-85363872D01*
X140357112Y-85252271D01*
X140447925Y-85082370D01*
X140447926Y-85082369D01*
X140463788Y-85030078D01*
X140465076Y-85029951D01*
X140535306Y-85023034D01*
X140625409Y-84995701D01*
X140708449Y-84951316D01*
X140781234Y-84891583D01*
X140796204Y-84873342D01*
X140901391Y-84768155D01*
X140919632Y-84753185D01*
X140979365Y-84680400D01*
X141023750Y-84597360D01*
X141051083Y-84507257D01*
X141058000Y-84437026D01*
X141058000Y-84437018D01*
X141060311Y-84413554D01*
X141058000Y-84390090D01*
X141058000Y-84083474D01*
X141060312Y-84060000D01*
X141058000Y-84036526D01*
X141058000Y-84012921D01*
X141053395Y-83989769D01*
X141051083Y-83966296D01*
X141044237Y-83943728D01*
X141039631Y-83920572D01*
X141030595Y-83898758D01*
X141024278Y-83877934D01*
X147908619Y-83877902D01*
X147824487Y-83962034D01*
M02*
