M48
; DRILL file {KiCad (5.1.4)-1} date 03/01/20 13:43:43
; FORMAT={-:-/ absolute / metric / decimal}
; #@! TF.CreationDate,2020-03-01T13:43:43+08:00
; #@! TF.GenerationSoftware,Kicad,Pcbnew,(5.1.4)-1
FMAT,2
METRIC
T1C0.300
T2C0.750
T3C0.800
%
G90
G05
T1
X127.02Y-94.8
X127.15Y-86.09
X127.18Y-88.3
X127.24Y-91.46
X128.25Y-89.61
X128.57Y-92.75
X128.62Y-95.66
X128.84Y-86.64
X130.4Y-94.78
X130.43Y-92.68
X130.46Y-86.08
X130.47Y-88.88
X130.48Y-88.27
X130.95Y-96.93
X131.03Y-86.3
X132.29Y-94.9
X132.83Y-85.79
X134.09Y-85.82
X134.45Y-96.96
X134.7Y-85.39
X134.8Y-84.07
X136.12Y-91.56
X136.33Y-93.48
X136.35Y-92.96
X136.36Y-91.13
X136.38Y-94.67
X136.93Y-95.04
X137.06Y-96.36
X137.15Y-84.13
X137.29Y-84.62
X137.65Y-84.25
X137.8Y-94.83
X138.06Y-94.42
X138.18Y-84.29
X138.3Y-95.12
X138.34Y-93.25
X138.57Y-95.62
X138.6Y-97.08
X138.61Y-93.71
X138.74Y-87.75
X138.76Y-87.17
X138.76Y-88.31
X138.84Y-93.24
X139.12Y-93.7
X139.26Y-87.79
X139.28Y-87.07
X139.31Y-88.33
X139.35Y-93.22
X139.52Y-84.08
X139.54Y-84.61
X140.07Y-84.01
X140.4Y-95.4
X140.58Y-84.06
X141.09Y-87.7
X141.23Y-92.73
X141.59Y-87.71
X142.08Y-87.6
X142.13Y-87.12
X142.376Y-89.068
X142.38Y-88.01
X143.1Y-89.05
X143.48Y-88.49
X143.73Y-89.07
X144.26Y-88.48
X144.38Y-95.02
X144.76Y-87.76
X144.85Y-91.64
X144.91Y-85.37
X144.93Y-86.62
X144.96Y-84.31
X145.23Y-96.92
X146.41Y-94.46
X146.52Y-90.05
X146.96Y-91.65
X147.13Y-96.91
X148.63Y-90.12
X148.67Y-92.89
X148.75Y-95.38
T2
X132.83Y-87.6
X132.83Y-89.6
X132.83Y-91.6
X132.83Y-93.6
X142.95Y-91.51
X142.95Y-93.51
T3
X141.39Y-96.63
X143.39Y-96.63
T0
M30
